<svg width="898" height="452" viewBox="0 0 898 452" fill="none" xmlns="http://www.w3.org/2000/svg">
<path d="M51.7736 390.744C59.853 390.744 62.3732 396.525 60.3719 403.493L52.2925 431.882C49.9206 440.257 45.918 443.371 39.1728 443.371H35.0219C26.9426 443.371 24.4965 437.515 26.4237 430.622L31.4641 412.758H48.5123L51.5513 402.084C52.0701 400.231 51.4772 399.342 49.55 399.342H46.1403C44.3614 399.342 43.6943 400.379 43.1754 402.233L41.5447 407.718H32.7983L34.3548 402.233C36.7268 393.857 40.7294 390.744 47.4745 390.744H51.7736ZM43.0272 431.882L46.0662 421.356H38.1351L35.0961 432.03C34.5772 433.883 35.1702 434.772 37.0974 434.772H40.0623C41.8412 434.772 42.5083 433.735 43.0272 431.882ZM56.6252 443.148L53.9568 443L56.4028 434.402H58.4041C61.5914 434.402 62.2585 432.03 67.0024 416.316L74.5629 391.114H99.2457L84.4212 443H75.1559L87.5343 399.712H80.7892L74.7852 419.577C73.0063 425.211 71.598 430.77 69.6708 435.143C67.373 440.332 64.1857 443.519 56.6252 443.148ZM92.6077 443L107.432 391.114H127.445L124.999 399.712H114.103L110.397 412.758H120.552L118.032 421.356H107.877L104.171 434.402H115.067L112.621 443H92.6077ZM120.412 443L135.237 391.114H143.539L145.243 417.428L161.18 391.114H170.816L155.991 443H147.171L151.618 427.434L156.065 413.573H155.695L142.946 434.402H138.795L137.461 413.573H137.09L133.68 427.434L129.233 443H120.412ZM164.486 443L179.311 391.114H188.576L182.424 412.758H190.578L196.73 391.114H205.995L191.17 443H181.905L188.057 421.356H179.904L173.752 443H164.486ZM199.304 443L214.128 391.114H223.394L208.569 443H199.304ZM258.257 391.114L245.879 434.402H250.178L245.582 450.412H239.578V443H234.167L240.32 421.356H232.166L226.014 443H216.749L231.573 391.114H240.838L234.686 412.758H242.84L248.992 391.114H258.257ZM263.292 443L278.117 391.114H287.382L281.23 412.758H282.935L295.536 391.114H305.023L290.125 416.316L290.866 443H281.601L281.527 421.356H278.71L272.558 443H263.292ZM296.517 443L311.342 391.114H331.355L328.909 399.712H318.013L314.307 412.758H324.461L321.941 421.356H311.787L308.08 434.402H318.976L316.53 443H296.517ZM333.539 443.371C325.46 443.371 322.94 437.589 324.941 430.622L326.646 424.469H335.763L333.613 432.03C333.094 433.883 333.687 434.772 335.615 434.772H338.58C340.358 434.772 341.026 433.735 341.544 431.882L343.768 424.099C344.287 422.246 343.694 421.356 341.767 421.356H337.097L339.617 412.758H344.806C346.585 412.758 347.252 411.72 347.771 409.867L349.994 402.084C350.513 400.231 349.92 399.342 347.993 399.342H345.102C343.323 399.342 342.656 400.379 342.137 402.233L340.062 409.645H331.316L333.317 402.233C335.615 393.857 339.691 390.744 346.437 390.744H350.069C358.148 390.744 360.668 396.525 358.667 403.493L357.184 408.829C355.85 413.425 353.923 415.945 350.884 417.131C353.033 419.207 353.552 422.394 352.515 425.878L350.81 431.882C348.438 440.257 344.435 443.371 337.69 443.371H333.539ZM364.994 443L379.818 391.114H389.084L382.931 412.758H384.636L397.237 391.114H406.725L391.826 416.316L392.567 443H383.302L383.228 421.356H380.411L374.259 443H364.994ZM398.219 443L413.043 391.114H433.056L430.61 399.712H419.714L416.008 412.758H426.163L423.643 421.356H413.488L409.782 434.402H420.678L418.232 443H398.219ZM425.356 443.148L422.688 443L425.134 434.402H427.135C430.322 434.402 430.99 432.03 435.733 416.316L443.294 391.114H467.977L453.152 443H443.887L456.265 399.712H449.52L443.516 419.577C441.737 425.211 440.329 430.77 438.402 435.143C436.104 440.332 432.917 443.519 425.356 443.148ZM461.339 443L476.163 391.114H497.288L494.842 399.712H482.983L470.604 443H461.339ZM487.253 443L502.077 391.114H522.09L519.644 399.712H508.748L505.042 412.758H515.197L512.677 421.356H502.522L498.816 434.402H509.712L507.266 443H487.253ZM514.687 443L529.511 391.114H538.777L532.624 412.758H540.778L546.93 391.114H556.195L541.371 443H532.106L538.258 421.356H530.104L523.952 443H514.687ZM559.855 443L574.68 391.114H583.945L577.793 412.758H585.427L591.58 391.114H600.845L594.693 412.758H602.327L608.48 391.114H617.745L602.92 443H593.655L599.807 421.356H592.173L586.02 443H576.755L582.907 421.356H575.273L569.121 443H559.855ZM611.104 443L625.929 391.114H645.942L643.496 399.712H632.6L628.893 412.758H639.048L636.528 421.356H626.373L622.667 434.402H633.563L631.117 443H611.104ZM638.538 443L653.363 391.114H667.075C675.155 391.114 677.675 396.97 675.674 403.863L673.524 411.35C671.152 419.725 667.149 422.839 660.404 422.839H653.585L647.803 443H638.538ZM656.031 414.24H661.294C663.073 414.24 663.74 413.203 664.259 411.35L666.853 402.455C667.372 400.602 666.779 399.712 664.852 399.712H660.182L656.031 414.24ZM671.546 443L686.37 391.114H695.636L680.811 443H671.546ZM688.991 443L703.815 391.114H713.081L706.928 412.758H715.082L721.234 391.114H730.499L715.675 443H706.409L712.562 421.356H704.408L698.256 443H688.991ZM723.808 443L738.633 391.114H758.646L756.2 399.712H745.304L741.597 412.758H751.752L749.232 421.356H739.077L735.371 434.402H746.267L743.821 443H723.808Z" fill="black"/>
<path d="M54.698 222L112.274 72.7285H170.277L143.408 222H112.701L118.032 195.984H94.3616L85.1921 222H54.698ZM104.597 166.983H123.789L136.797 102.156H127.415L104.597 166.983Z" fill="black"/>
<path d="M159.804 222.427L151.275 221.787L159.804 192.146H166.628C173.452 192.146 174.732 190.013 188.806 142.673L209.917 72.7285H287.965L245.316 222H213.329L247.448 102.583H231.668L216.741 152.056C212.05 167.196 205.012 189.587 201.601 197.264C193.071 216.029 181.129 223.706 159.804 222.427Z" fill="black"/>
<path d="M372.568 102.583H337.169L328.64 132.437H352.736L344.207 162.291H320.11L303.05 222H271.063L288.123 162.291H274.049L282.579 132.437H296.653L313.712 72.7285H381.098L372.568 102.583Z" fill="black"/>
<path d="M343.953 222L401.529 72.7285H459.532L432.663 222H401.956L407.287 195.984H383.617L374.447 222H343.953ZM393.853 166.983H413.045L426.053 102.156H416.67L393.853 166.983Z" fill="black"/>
<path fill-rule="evenodd" clip-rule="evenodd" d="M51.783 224L47 216.5L110.902 70.7285L164.5 65L172.669 70.7285L145.08 224H110.249L102.5 218L115.58 197.984H95.7773L86.6077 224H51.783ZM94.3616 195.984H118.032L112.701 222H143.408L170.277 72.7285H112.274L54.698 222H85.1921L94.3616 195.984ZM122.151 164.983L134.356 104.156H128.831L107.422 164.983H122.151ZM104.597 166.983H123.789L136.797 102.156H127.415L104.597 166.983ZM159.67 224.422L148.673 223.597L145.968 219.069L158.299 190.146H166.628C168.256 190.146 169.063 190.001 169.821 189.452C170.68 188.831 171.742 187.491 173.177 184.334C176.038 178.042 179.83 165.845 186.889 142.103L186.891 142.095L208.432 70.7285L282.5 65L290.616 70.7285L246.824 224H210.678L203.421 218L244.797 104.583H233.154L218.654 152.641L218.651 152.648C213.982 167.716 206.901 190.261 203.428 198.076L203.425 198.084L203.421 198.091C199.057 207.692 193.717 214.684 186.543 219.069C179.366 223.455 170.602 225.078 159.685 224.423L159.67 224.422ZM231.668 102.583H247.448L213.329 222H245.316L287.965 72.7285H209.917L188.806 142.673C174.732 190.013 173.452 192.146 166.628 192.146H159.804L151.275 221.787L159.804 222.427C181.129 223.706 193.071 216.029 201.601 197.264C205.012 189.587 212.05 167.196 216.741 152.056L231.668 102.583ZM374.077 104.583H338.678L331.291 130.437L347 124.5L355.388 130.437L345.715 164.291H321.618L304.559 224H268.412L260.5 218L285.472 164.291H271.397L265.539 158.5L281.07 130.437H295.144L312.204 70.7285L375.5 65L383.749 70.7285L374.077 104.583ZM296.653 132.437H282.579L274.049 162.291H288.123L271.063 222H303.05L320.11 162.291H344.207L352.736 132.437H328.64L337.169 102.583H372.568L381.098 72.7285H313.712L296.653 132.437ZM341.038 224L333.5 218L400.157 70.7285L454 65L461.924 70.7285L434.335 224H399.505L391.5 218L404.836 197.984H385.033L375.863 224H341.038ZM407.287 195.984H383.617L374.447 222H343.953L401.529 72.7285H459.532L432.663 222H401.956L407.287 195.984ZM411.406 164.983L423.611 104.156H418.086L396.677 164.983H411.406ZM393.853 166.983H413.045L426.053 102.156H416.67L393.853 166.983Z" fill="black"/>
<path d="M46.698 216L104.274 66.7284H162.277L135.408 216H104.701L110.032 189.984H86.3616L77.1921 216H46.698ZM96.5974 160.983H115.789L128.797 96.1563H119.415L96.5974 160.983ZM151.805 216.426L143.275 215.787L151.805 186.146H158.628C165.452 186.146 166.732 184.013 180.806 136.673L201.917 66.7284H279.965L237.316 216H205.329L239.448 96.5828H223.668L208.741 146.056C204.05 161.196 197.012 183.587 193.601 191.264C185.071 210.029 173.129 217.706 151.805 216.426ZM364.568 96.5828H329.169L320.64 126.437H344.736L336.207 156.291H312.11L295.05 216H263.063L280.123 156.291H266.049L274.579 126.437H288.653L305.712 66.7284H373.098L364.568 96.5828ZM335.953 216L393.529 66.7284H451.532L424.663 216H393.956L399.287 189.984H375.617L366.447 216H335.953ZM385.853 160.983H405.045L418.053 96.1563H408.67L385.853 160.983Z" fill="#F8FF13"/>
<path d="M46.698 216L44.832 215.28L43.783 218H46.698V216ZM104.274 66.7284V64.7284H102.902L102.408 66.0087L104.274 66.7284ZM162.277 66.7284L164.245 67.0827L164.669 64.7284H162.277V66.7284ZM135.408 216V218H137.08L137.376 216.354L135.408 216ZM104.701 216L102.741 215.599L102.249 218H104.701V216ZM110.032 189.984L111.991 190.386L112.483 187.984H110.032V189.984ZM86.3616 189.984V187.984H84.9459L84.4753 189.319L86.3616 189.984ZM77.1921 216V218H78.6077L79.0783 216.665L77.1921 216ZM96.5974 160.983L94.7108 160.319L93.7731 162.983H96.5974V160.983ZM115.789 160.983V162.983H117.428L117.75 161.376L115.789 160.983ZM128.797 96.1563L130.758 96.5497L131.239 94.1563H128.797V96.1563ZM119.415 96.1563V94.1563H117.998L117.528 95.4922L119.415 96.1563ZM48.564 216.72L106.14 67.4482L102.408 66.0087L44.832 215.28L48.564 216.72ZM104.274 68.7284H162.277V64.7284H104.274V68.7284ZM160.308 66.3741L133.44 215.646L137.376 216.354L164.245 67.0827L160.308 66.3741ZM135.408 214H104.701V218H135.408V214ZM106.66 216.401L111.991 190.386L108.073 189.583L102.741 215.599L106.66 216.401ZM110.032 187.984H86.3616V191.984H110.032V187.984ZM84.4753 189.319L75.3058 215.335L79.0783 216.665L88.2479 190.649L84.4753 189.319ZM77.1921 214H46.698V218H77.1921V214ZM96.5974 162.983H115.789V158.983H96.5974V162.983ZM117.75 161.376L130.758 96.5497L126.836 95.7628L113.829 160.589L117.75 161.376ZM128.797 94.1563H119.415V98.1563H128.797V94.1563ZM117.528 95.4922L94.7108 160.319L98.4839 161.647L121.301 96.8203L117.528 95.4922ZM151.805 216.426L151.655 218.421L151.67 218.422L151.685 218.423L151.805 216.426ZM143.275 215.787L141.353 215.234L140.673 217.597L143.125 217.781L143.275 215.787ZM151.805 186.146V184.146H150.299L149.883 185.593L151.805 186.146ZM180.806 136.673L178.891 136.095L178.889 136.103L180.806 136.673ZM201.917 66.7284V64.7284H200.432L200.002 66.1505L201.917 66.7284ZM279.965 66.7284L281.888 67.2779L282.616 64.7284H279.965V66.7284ZM237.316 216V218H238.824L239.239 216.549L237.316 216ZM205.329 216L203.406 215.451L202.678 218H205.329V216ZM239.448 96.5828L241.371 97.1322L242.1 94.5828H239.448V96.5828ZM223.668 96.5828V94.5828H222.182L221.753 96.005L223.668 96.5828ZM208.741 146.056L210.651 146.648L210.654 146.64L210.656 146.633L208.741 146.056ZM193.601 191.264L195.421 192.091L195.425 192.084L195.428 192.076L193.601 191.264ZM151.954 214.432L143.424 213.792L143.125 217.781L151.655 218.421L151.954 214.432ZM145.197 216.34L153.727 186.699L149.883 185.593L141.353 215.234L145.197 216.34ZM151.805 188.146H158.628V184.146H151.805V188.146ZM158.628 188.146C160.412 188.146 162.325 188.024 164.165 186.693C165.906 185.435 167.322 183.283 168.819 179.99C171.823 173.38 175.707 160.841 182.723 137.243L178.889 136.103C171.83 159.845 168.038 172.042 165.177 178.334C163.742 181.491 162.68 182.831 161.821 183.452C161.063 184.001 160.256 184.146 158.628 184.146V188.146ZM182.721 137.251L203.832 67.3064L200.002 66.1505L178.891 136.095L182.721 137.251ZM201.917 68.7284H279.965V64.7284H201.917V68.7284ZM278.042 66.179L235.393 215.451L239.239 216.549L281.888 67.2779L278.042 66.179ZM237.316 214H205.329V218H237.316V214ZM207.252 216.549L241.371 97.1322L237.525 96.0333L203.406 215.451L207.252 216.549ZM239.448 94.5828H223.668V98.5828H239.448V94.5828ZM221.753 96.005L206.826 145.478L210.656 146.633L225.583 97.1605L221.753 96.005ZM206.831 145.464C202.117 160.676 195.124 182.912 191.773 190.451L195.428 192.076C198.901 184.261 205.982 161.716 210.651 146.648L206.831 145.464ZM191.78 190.436C187.614 199.601 182.718 205.83 176.458 209.655C170.201 213.479 162.332 215.055 151.924 214.43L151.685 218.423C162.602 219.078 171.366 217.455 178.543 213.068C185.717 208.684 191.057 201.692 195.421 192.091L191.78 190.436ZM364.568 96.5828V98.5828H366.077L366.491 97.1322L364.568 96.5828ZM329.169 96.5828V94.5828H327.661L327.246 96.0333L329.169 96.5828ZM320.64 126.437L318.717 125.888L317.988 128.437H320.64V126.437ZM344.736 126.437L346.659 126.987L347.388 124.437H344.736V126.437ZM336.207 156.291V158.291H337.715L338.13 156.841L336.207 156.291ZM312.11 156.291V154.291H310.601L310.187 155.742L312.11 156.291ZM295.05 216V218H296.559L296.973 216.549L295.05 216ZM263.063 216L261.14 215.451L260.412 218H263.063V216ZM280.123 156.291L282.046 156.841L282.775 154.291H280.123V156.291ZM266.049 156.291L264.126 155.742L263.397 158.291H266.049V156.291ZM274.579 126.437V124.437H273.07L272.656 125.888L274.579 126.437ZM288.653 126.437V128.437H290.161L290.576 126.987L288.653 126.437ZM305.712 66.7284V64.7284H304.204L303.789 66.179L305.712 66.7284ZM373.098 66.7284L375.021 67.2779L375.749 64.7284H373.098V66.7284ZM364.568 94.5828H329.169V98.5828H364.568V94.5828ZM327.246 96.0333L318.717 125.888L322.563 126.987L331.092 97.1322L327.246 96.0333ZM320.64 128.437H344.736V124.437H320.64V128.437ZM342.813 125.888L334.283 155.742L338.13 156.841L346.659 126.987L342.813 125.888ZM336.207 154.291H312.11V158.291H336.207V154.291ZM310.187 155.742L293.127 215.451L296.973 216.549L314.033 156.841L310.187 155.742ZM295.05 214H263.063V218H295.05V214ZM264.987 216.549L282.046 156.841L278.2 155.742L261.14 215.451L264.987 216.549ZM280.123 154.291H266.049V158.291H280.123V154.291ZM267.972 156.841L276.502 126.987L272.656 125.888L264.126 155.742L267.972 156.841ZM274.579 128.437H288.653V124.437H274.579V128.437ZM290.576 126.987L307.636 67.2779L303.789 66.179L286.73 125.888L290.576 126.987ZM305.712 68.7284H373.098V64.7284H305.712V68.7284ZM371.175 66.179L362.645 96.0333L366.491 97.1322L375.021 67.2779L371.175 66.179ZM335.953 216L334.087 215.28L333.038 218H335.953V216ZM393.529 66.7284V64.7284H392.157L391.663 66.0087L393.529 66.7284ZM451.532 66.7284L453.5 67.0827L453.924 64.7284H451.532V66.7284ZM424.663 216V218H426.335L426.632 216.354L424.663 216ZM393.956 216L391.997 215.599L391.505 218H393.956V216ZM399.287 189.984L401.246 190.386L401.738 187.984H399.287V189.984ZM375.617 189.984V187.984H374.201L373.731 189.319L375.617 189.984ZM366.447 216V218H367.863L368.334 216.665L366.447 216ZM385.853 160.983L383.966 160.319L383.028 162.983H385.853V160.983ZM405.045 160.983V162.983H406.683L407.006 161.376L405.045 160.983ZM418.053 96.1563L420.014 96.5497L420.494 94.1563H418.053V96.1563ZM408.67 96.1563V94.1563H407.254L406.783 95.4922L408.67 96.1563ZM337.819 216.72L395.395 67.4482L391.663 66.0087L334.087 215.28L337.819 216.72ZM393.529 68.7284H451.532V64.7284H393.529V68.7284ZM449.564 66.3741L422.695 215.646L426.632 216.354L453.5 67.0827L449.564 66.3741ZM424.663 214H393.956V218H424.663V214ZM395.915 216.401L401.246 190.386L397.328 189.583L391.997 215.599L395.915 216.401ZM399.287 187.984H375.617V191.984H399.287V187.984ZM373.731 189.319L364.561 215.335L368.334 216.665L377.503 190.649L373.731 189.319ZM366.447 214H335.953V218H366.447V214ZM385.853 162.983H405.045V158.983H385.853V162.983ZM407.006 161.376L420.014 96.5497L416.092 95.7628L403.084 160.589L407.006 161.376ZM418.053 94.1563H408.67V98.1563H418.053V94.1563ZM406.783 95.4922L383.966 160.319L387.739 161.647L410.556 96.8203L406.783 95.4922Z" fill="black"/>
<path d="M88.0943 378.397L99.4087 339.043H108.099C112.199 329.533 117.118 314.611 122.201 298.213L137.943 247.216H198.286L172.05 339.043H182.873L171.558 378.397H154.505V362H116.298L105.148 378.397H88.0943ZM131.22 339.043H147.454L167.131 270.009H155.489L146.798 298.213C142.862 311.003 137.451 326.581 131.22 339.043Z" fill="black"/>
<path d="M187.821 362L220.617 247.216H269.974L263.414 270.173H238.326L231.767 293.13H255.052L248.493 316.086H225.208L218.649 339.043H243.737L237.178 362H187.821Z" fill="black"/>
<path d="M254.456 362L287.251 247.216H310.7L314.143 300.345L346.447 247.216H372.847L340.052 362H316.275L325.13 331.172L333.985 303.788H333.165L309.552 342.979H295.778L294.466 303.788H293.646L287.087 331.172L278.233 362H254.456Z" fill="black"/>
<path d="M353.924 362L398.198 247.216H442.799L422.138 362H398.526L402.625 341.995H384.424L377.373 362H353.924ZM392.295 319.694H407.053L417.055 269.845H409.84L392.295 319.694Z" fill="black"/>
<path d="M434.747 362.328L428.188 361.836L434.747 339.043H439.994C445.241 339.043 446.225 337.403 457.048 301.001L473.281 247.216H533.297L500.501 362H475.905L502.141 270.173H490.007L478.528 308.216C474.921 319.858 469.51 337.075 466.886 342.979C460.327 357.408 451.144 363.312 434.747 362.328Z" fill="black"/>
<path d="M518.496 362L551.292 247.216H575.888L563.754 289.85H574.412C592.286 289.85 597.697 302.64 593.434 318.054L588.022 336.583C582.775 355.113 573.92 362 558.999 362H518.496ZM589.826 362L622.621 247.216H647.218L614.423 362H589.826ZM549.488 339.863H559.326C561.95 339.863 562.934 338.387 563.754 335.436L569.165 316.414C570.149 313.463 569.165 311.987 566.214 311.987H557.359L549.488 339.863Z" fill="black"/>
<path d="M658.583 362.82C640.71 362.82 635.135 350.03 639.562 334.616L657.436 271.813C662.683 253.283 671.538 246.396 686.459 246.396H701.217C719.091 246.396 724.666 259.187 720.239 274.6L714.007 296.737H689.903L696.626 273.125C697.446 270.173 696.626 268.697 693.674 268.697H686.295C683.672 268.697 682.36 270.501 681.704 273.125L663.667 336.42C662.847 339.207 663.667 340.519 666.782 340.519H673.997C676.621 340.519 677.769 339.043 678.589 336.092L684.82 314.283H708.924L702.365 337.403C697.118 355.933 688.755 362.82 673.833 362.82H658.583Z" fill="black"/>
<path d="M777.204 304.772L777.696 339.043H789.994L778.68 378.397H761.626V362H753.919V316.086H749.492L736.374 362H711.777L744.572 247.216H769.169L756.051 293.13H759.166L784.747 247.216H809.343L777.204 304.772Z" fill="black"/>
<path d="M785.643 362L829.917 247.216H874.519L853.858 362H830.245L834.344 341.995H816.143L809.092 362H785.643ZM824.014 319.694H838.772L848.774 269.845H841.559L824.014 319.694Z" fill="black"/>
<path fill-rule="evenodd" clip-rule="evenodd" d="M85.4383 380.397L78.5 372L97.9027 337.043H106.776C110.723 327.61 115.417 313.344 120.29 297.623L120.291 297.621L136.467 245.216L194 237.5L200.938 245.216L174.702 337.043H185.529L173.064 380.397H152.505L145.5 372L152.505 364H117.357L106.206 380.397H85.4383ZM116.298 362H154.505V378.397H171.558L182.873 339.043H172.05L198.286 247.216H137.943L122.201 298.213C117.118 314.611 112.199 329.533 108.099 339.043H99.4087L88.0943 378.397H105.148L116.298 362ZM145.944 337.043L164.481 272.009H156.965L148.709 298.801C145.061 310.659 140.126 324.981 134.416 337.043H145.944ZM132.201 337.043C131.876 337.718 131.549 338.385 131.22 339.043H147.454L167.131 270.009H155.489L146.798 298.213C143.07 310.328 138.019 324.943 132.201 337.043ZM185.17 364L179.935 356.5L219.108 245.216L265.5 237.5L272.625 245.216L264.923 272.173H239.835L234.419 291.13L250.5 283.5L257.703 291.13L250.001 318.086H226.717L221.3 337.043L239.5 329L246.389 337.043L238.687 364H185.17ZM218.649 339.043L225.208 316.086H248.493L255.052 293.13H231.767L238.326 270.173H263.414L269.974 247.216H220.617L187.821 362H237.178L243.737 339.043H218.649ZM251.805 364L245 356.5L285.743 245.216L305.5 237.5L312.574 245.216L315.729 293.887L345.322 245.216L368.5 237.5L375.498 245.216L341.56 364H313.62L307 356L323.217 330.588L327.693 316.745L310.682 344.979H293.844L287.494 337L292.862 315.649L289.022 331.682L279.739 364H251.805ZM293.646 303.788H294.466L295.778 342.979H309.552L333.165 303.788H333.985L325.13 331.172L316.275 362H340.052L372.847 247.216H346.447L314.143 300.345L310.7 247.216H287.251L254.456 362H278.233L287.087 331.172L293.646 303.788ZM351.009 364L343.846 356L396.826 245.216L438 237.5L445.192 245.216L423.811 364H396.075L389 356L400.174 343.995H385.84L378.789 364H351.009ZM384.424 341.995H402.625L398.526 362H422.138L442.799 247.216H398.198L353.924 362H377.373L384.424 341.995ZM405.414 317.694L414.614 271.845H411.257L395.119 317.694H405.414ZM392.295 319.694H407.053L417.055 269.845H409.84L392.295 319.694ZM434.612 364.323L425.586 363.646L424.351 361L426.691 348L433.241 337.043H439.994C441.228 337.043 441.72 336.929 442.178 336.597C442.737 336.194 443.513 335.257 444.609 332.845C446.792 328.044 449.698 318.704 455.13 300.431L455.133 300.423L471.796 245.216L529 237.5L535.948 245.216L502.01 364H473.253L466.5 356L499.49 272.173H491.492L480.443 308.793L480.441 308.8L480.439 308.808C476.854 320.378 471.399 337.75 468.714 343.791L468.71 343.799L468.707 343.806C465.328 351.239 461.171 356.704 455.549 360.14C449.923 363.578 443.081 364.831 434.627 364.324L434.612 364.323ZM490.007 270.173H502.141L475.905 362H500.501L533.297 247.216H473.281L457.048 301.001C446.225 337.403 445.241 339.043 439.994 339.043H434.747L428.188 361.836L434.747 362.328C451.144 363.312 460.327 357.408 466.886 342.979C469.51 337.075 474.921 319.858 478.528 308.216L490.007 270.173ZM515.845 364L509 356L549.783 245.216L571.5 237.5L578.537 245.216L566.403 287.85H574.412C583.849 287.85 590.434 291.262 593.942 297.148C597.381 302.918 597.572 310.593 595.361 318.587L595.357 318.601L595.353 318.615L589.947 337.128C589.946 337.131 589.945 337.134 589.944 337.137C587.267 346.587 583.592 353.365 578.436 357.762C573.235 362.197 566.777 364 558.999 364H515.845ZM588.022 336.583L593.434 318.054C597.697 302.64 592.286 289.85 574.412 289.85H563.754L575.888 247.216H551.292L518.496 362H558.999C573.92 362 582.775 355.113 588.022 336.583ZM587.175 364L580.5 356.5L621.113 245.216L643 237.5L649.869 245.216L615.931 364H587.175ZM563.754 335.436L569.165 316.414C570.149 313.463 569.165 311.987 566.214 311.987H557.359L549.488 339.863H559.326C561.95 339.863 562.934 338.387 563.754 335.436ZM552.131 337.863H559.327C560.21 337.863 560.526 337.641 560.742 337.405C561.077 337.04 561.429 336.334 561.827 334.9L561.83 334.888L567.254 315.824L567.268 315.782C567.628 314.7 567.527 314.29 567.501 314.211C567.431 314.159 567.127 313.987 566.214 313.987H558.872L552.131 337.863ZM589.826 362H614.423L647.218 247.216H622.621L589.826 362ZM702.365 337.403C697.118 355.933 688.755 362.82 673.833 362.82H658.583C640.71 362.82 635.135 350.03 639.562 334.616L657.436 271.813C662.683 253.283 671.538 246.396 686.459 246.396H701.217C719.091 246.396 724.666 259.187 720.239 274.6L714.007 296.737H689.903L696.626 273.125C697.446 270.173 696.626 268.697 693.674 268.697H686.295C683.672 268.697 682.36 270.501 681.704 273.125L663.667 336.42C662.847 339.207 663.667 340.519 666.782 340.519H673.997C676.621 340.519 677.769 339.043 678.589 336.092L684.82 314.283H708.924L702.365 337.403ZM694.699 272.589C694.7 272.587 694.7 272.585 694.701 272.583C694.874 271.958 694.93 271.514 694.926 271.215C694.923 271.028 694.898 270.932 694.884 270.895C694.807 270.841 694.511 270.697 693.674 270.697H686.295C685.504 270.697 685.054 270.943 684.714 271.303C684.309 271.73 683.931 272.462 683.644 273.61L683.636 273.641L665.59 336.968L665.588 336.976L665.585 336.984C665.413 337.572 665.364 337.96 665.369 338.196C665.37 338.254 665.374 338.297 665.379 338.326C665.405 338.339 665.443 338.355 665.495 338.372C665.722 338.447 666.125 338.519 666.782 338.519H673.997C674.888 338.519 675.27 338.291 675.535 338.018C675.895 337.648 676.277 336.941 676.661 335.556L683.311 312.283L704.289 304.5L711.57 312.283L704.289 337.948C701.619 347.379 698.074 354.161 693.045 358.565C687.961 363.016 681.614 364.82 673.833 364.82H658.583C649.149 364.82 639.03 358.384 635.5 352.5C632.035 346.726 635.341 342.07 637.639 334.066M637.64 334.064L655.511 271.268L657.429 271.811L655.512 271.265C658.189 261.813 661.865 255.032 667.022 250.634C672.223 246.199 678.681 244.396 686.459 244.396L702.5 239C711.934 239 717.275 247.806 720.806 253.689C724.269 259.462 724.46 267.142 722.163 275.144C722.162 275.147 722.162 275.15 722.161 275.153L715.522 298.737H687.254L694.699 272.589M694.907 270.915C694.907 270.915 694.902 270.911 694.895 270.903C694.904 270.91 694.907 270.915 694.907 270.915ZM777.204 304.772L777.696 339.043H789.994L778.68 378.397H761.626V362H753.919V316.086H749.492L736.374 362H711.777L744.572 247.216H769.169L756.051 293.13H759.166L784.747 247.216H809.343L777.204 304.772ZM759.451 288.51L771.82 245.216L764.5 237.5L743.064 245.216L702.365 356L709.126 364H737.882L751 318.086H751.919L745 355.5L751.919 364H759.626L752.5 372L759.626 380.397H780.185L784.9 364H810.508L817.559 343.995H831.893L821 356L827.794 364H855.53L876.911 245.216L870 237L828.545 245.216L791.257 341.89L792.65 337.043H779.667L779.211 305.279L812.751 245.216L805.5 237L783.571 245.216L759.451 288.51ZM785.643 362L829.917 247.216H874.519L853.858 362H830.245L834.344 341.995H816.143L809.092 362H785.643ZM837.133 317.694L846.333 271.845H842.976L826.838 317.694H837.133ZM824.014 319.694H838.772L848.774 269.845H841.559L824.014 319.694Z" fill="black"/>
<path d="M81.0943 370.398L92.4087 331.043H101.099C105.199 321.533 110.118 306.611 115.201 290.213L130.943 239.217H191.286L165.05 331.043H175.873L164.558 370.398H147.505V354H109.298L98.1478 370.398H81.0943ZM124.22 331.043H140.454L160.131 262.009H148.489L139.798 290.213C135.862 303.003 130.451 318.581 124.22 331.043ZM180.821 354L213.617 239.217H262.974L256.414 262.173H231.326L224.767 285.13H248.052L241.493 308.087H218.208L211.649 331.043H236.737L230.178 354H180.821ZM247.456 354L280.251 239.217H303.7L307.143 292.345L339.447 239.217H365.847L333.052 354H309.275L318.13 323.172L326.985 295.788H326.165L302.552 334.979H288.778L287.466 295.788H286.646L280.087 323.172L271.233 354H247.456ZM346.924 354L391.198 239.217H435.799L415.138 354H391.526L395.625 333.995H377.424L370.373 354H346.924ZM385.295 311.694H400.053L410.055 261.845H402.84L385.295 311.694ZM427.747 354.328L421.188 353.836L427.747 331.043H432.994C438.241 331.043 439.225 329.404 450.048 293.001L466.281 239.217H526.297L493.501 354H468.905L495.141 262.173H483.007L471.528 300.216C467.921 311.858 462.51 329.076 459.886 334.979C453.327 349.409 444.144 355.312 427.747 354.328ZM511.496 354L544.292 239.217H568.888L556.754 281.85H567.412C585.286 281.85 590.697 294.641 586.434 310.054L581.022 328.584C575.775 347.113 566.92 354 551.999 354H511.496ZM582.826 354L615.621 239.217H640.218L607.423 354H582.826ZM542.488 331.863H552.326C554.95 331.863 555.934 330.387 556.754 327.436L562.165 308.415C563.149 305.463 562.165 303.987 559.213 303.987H550.359L542.488 331.863ZM651.583 354.82C633.71 354.82 628.135 342.03 632.562 326.616L650.436 263.813C655.683 245.284 664.538 238.397 679.459 238.397H694.217C712.091 238.397 717.666 251.187 713.239 266.601L707.007 288.737H682.903L689.626 265.125C690.446 262.173 689.626 260.697 686.674 260.697H679.295C676.672 260.697 675.36 262.501 674.704 265.125L656.667 328.42C655.847 331.207 656.667 332.519 659.782 332.519H666.997C669.621 332.519 670.769 331.043 671.589 328.092L677.82 306.283H701.924L695.365 329.404C690.118 347.933 681.755 354.82 666.833 354.82H651.583ZM770.204 296.772L770.696 331.043H782.994L771.679 370.398H754.626V354H746.919V308.087H742.492L729.374 354H704.777L737.572 239.217H762.169L749.051 285.13H752.166L777.747 239.217H802.343L770.204 296.772ZM778.643 354L822.917 239.217H867.519L846.858 354H823.245L827.344 333.995H809.143L802.092 354H778.643ZM817.014 311.694H831.772L841.774 261.845H834.559L817.014 311.694Z" fill="#F8FF13"/>
<path d="M81.0943 370.398L79.1722 369.845L78.4383 372.398H81.0943V370.398ZM92.4087 331.043V329.043H90.9026L90.4865 330.491L92.4087 331.043ZM101.099 331.043V333.043H102.415L102.936 331.835L101.099 331.043ZM115.201 290.213L117.112 290.805L117.112 290.803L115.201 290.213ZM130.943 239.217V237.217H129.467L129.032 238.627L130.943 239.217ZM191.286 239.217L193.209 239.766L193.938 237.217H191.286V239.217ZM165.05 331.043L163.127 330.494L162.399 333.043H165.05V331.043ZM175.873 331.043L177.795 331.596L178.529 329.043H175.873V331.043ZM164.558 370.398V372.398H166.064L166.48 370.95L164.558 370.398ZM147.505 370.398H145.505V372.398H147.505V370.398ZM147.505 354H149.505V352H147.505V354ZM109.298 354V352H108.24L107.644 352.875L109.298 354ZM98.1478 370.398V372.398H99.2064L99.8017 371.522L98.1478 370.398ZM124.22 331.043L122.431 330.149L120.984 333.043H124.22V331.043ZM140.454 331.043V333.043H141.963L142.377 331.592L140.454 331.043ZM160.131 262.009L162.054 262.557L162.781 260.009H160.131V262.009ZM148.489 262.009V260.009H147.012L146.577 261.42L148.489 262.009ZM139.798 290.213L137.887 289.624L137.886 289.625L139.798 290.213ZM83.0164 370.95L94.3308 331.596L90.4865 330.491L79.1722 369.845L83.0164 370.95ZM92.4087 333.043H101.099V329.043H92.4087V333.043ZM102.936 331.835C107.084 322.212 112.032 307.192 117.112 290.805L113.291 289.621C108.204 306.03 103.314 320.853 99.2628 330.252L102.936 331.835ZM117.112 290.803L132.854 239.806L129.032 238.627L113.29 289.623L117.112 290.803ZM130.943 241.217H191.286V237.217H130.943V241.217ZM189.363 238.667L163.127 330.494L166.973 331.593L193.209 239.766L189.363 238.667ZM165.05 333.043H175.873V329.043H165.05V333.043ZM173.951 330.491L162.636 369.845L166.48 370.95L177.795 331.596L173.951 330.491ZM164.558 368.398H147.505V372.398H164.558V368.398ZM149.505 370.398V354H145.505V370.398H149.505ZM147.505 352H109.298V356H147.505V352ZM107.644 352.875L96.494 369.273L99.8017 371.522L110.952 355.125L107.644 352.875ZM98.1478 368.398H81.0943V372.398H98.1478V368.398ZM124.22 333.043H140.454V329.043H124.22V333.043ZM142.377 331.592L162.054 262.557L158.208 261.461L138.53 330.495L142.377 331.592ZM160.131 260.009H148.489V264.009H160.131V260.009ZM146.577 261.42L137.887 289.624L141.709 290.802L150.4 262.598L146.577 261.42ZM137.886 289.625C133.961 302.383 128.588 317.836 122.431 330.149L126.009 331.938C132.315 319.326 137.764 303.624 141.709 290.801L137.886 289.625ZM180.821 354L178.898 353.451L178.17 356H180.821V354ZM213.617 239.217V237.217H212.108L211.694 238.667L213.617 239.217ZM262.974 239.217L264.897 239.766L265.625 237.217H262.974V239.217ZM256.414 262.173V264.173H257.923L258.338 262.723L256.414 262.173ZM231.326 262.173V260.173H229.818L229.403 261.624L231.326 262.173ZM224.767 285.13L222.844 284.58L222.116 287.13H224.767V285.13ZM248.052 285.13L249.975 285.679L250.703 283.13H248.052V285.13ZM241.493 308.087V310.087H243.001L243.416 308.636L241.493 308.087ZM218.208 308.087V306.087H216.699L216.285 307.537L218.208 308.087ZM211.649 331.043L209.726 330.494L208.997 333.043H211.649V331.043ZM236.737 331.043L238.66 331.593L239.389 329.043H236.737V331.043ZM230.178 354V356H231.687L232.101 354.549L230.178 354ZM182.744 354.549L215.54 239.766L211.694 238.667L178.898 353.451L182.744 354.549ZM213.617 241.217H262.974V237.217H213.617V241.217ZM261.05 238.667L254.491 261.624L258.338 262.723L264.897 239.766L261.05 238.667ZM256.414 260.173H231.326V264.173H256.414V260.173ZM229.403 261.624L222.844 284.58L226.69 285.679L233.249 262.723L229.403 261.624ZM224.767 287.13H248.052V283.13H224.767V287.13ZM246.129 284.58L239.57 307.537L243.416 308.636L249.975 285.679L246.129 284.58ZM241.493 306.087H218.208V310.087H241.493V306.087ZM216.285 307.537L209.726 330.494L213.572 331.593L220.131 308.636L216.285 307.537ZM211.649 333.043H236.737V329.043H211.649V333.043ZM234.814 330.494L228.255 353.451L232.101 354.549L238.66 331.593L234.814 330.494ZM230.178 352H180.821V356H230.178V352ZM247.456 354L245.533 353.451L244.805 356H247.456V354ZM280.251 239.217V237.217H278.743L278.328 238.667L280.251 239.217ZM303.7 239.217L305.696 239.087L305.574 237.217H303.7V239.217ZM307.143 292.345L305.148 292.474L305.558 298.802L308.852 293.384L307.143 292.345ZM339.447 239.217V237.217H338.322L337.738 238.177L339.447 239.217ZM365.847 239.217L367.77 239.766L368.498 237.217H365.847V239.217ZM333.052 354V356H334.56L334.975 354.549L333.052 354ZM309.275 354L307.353 353.448L306.62 356H309.275V354ZM318.13 323.172L316.227 322.557L316.217 322.589L316.208 322.62L318.13 323.172ZM326.985 295.788L328.888 296.404L329.733 293.788H326.985V295.788ZM326.165 295.788V293.788H325.035L324.452 294.756L326.165 295.788ZM302.552 334.979V336.979H303.682L304.265 336.011L302.552 334.979ZM288.778 334.979L286.779 335.046L286.844 336.979H288.778V334.979ZM287.466 295.788L289.465 295.721L289.4 293.788H287.466V295.788ZM286.646 295.788V293.788H285.069L284.701 295.323L286.646 295.788ZM280.087 323.172L282.01 323.725L282.022 323.682L282.032 323.638L280.087 323.172ZM271.233 354V356H272.739L273.155 354.552L271.233 354ZM249.379 354.549L282.174 239.766L278.328 238.667L245.533 353.451L249.379 354.549ZM280.251 241.217H303.7V237.217H280.251V241.217ZM301.704 239.346L305.148 292.474L309.139 292.216L305.696 239.087L301.704 239.346ZM308.852 293.384L341.156 240.256L337.738 238.177L305.434 291.306L308.852 293.384ZM339.447 241.217H365.847V237.217H339.447V241.217ZM363.924 238.667L331.129 353.451L334.975 354.549L367.77 239.766L363.924 238.667ZM333.052 352H309.275V356H333.052V352ZM311.197 354.552L320.052 323.725L316.208 322.62L307.353 353.448L311.197 354.552ZM320.033 323.788L328.888 296.404L325.082 295.173L316.227 322.557L320.033 323.788ZM326.985 293.788H326.165V297.788H326.985V293.788ZM324.452 294.756L300.839 333.947L304.265 336.011L327.878 296.821L324.452 294.756ZM302.552 332.979H288.778V336.979H302.552V332.979ZM290.777 334.912L289.465 295.721L285.467 295.855L286.779 335.046L290.777 334.912ZM287.466 293.788H286.646V297.788H287.466V293.788ZM284.701 295.323L278.142 322.707L282.032 323.638L288.591 296.254L284.701 295.323ZM278.165 322.62L269.31 353.448L273.155 354.552L282.01 323.725L278.165 322.62ZM271.233 352H247.456V356H271.233V352ZM346.924 354L345.058 353.28L344.009 356H346.924V354ZM391.198 239.217V237.217H389.826L389.332 238.497L391.198 239.217ZM435.799 239.217L437.768 239.571L438.192 237.217H435.799V239.217ZM415.138 354V356H416.811L417.107 354.354L415.138 354ZM391.526 354L389.567 353.599L389.074 356H391.526V354ZM395.625 333.995L397.585 334.396L398.077 331.995H395.625V333.995ZM377.424 333.995V331.995H376.008L375.538 333.33L377.424 333.995ZM370.373 354V356H371.789L372.259 354.665L370.373 354ZM385.295 311.694L383.408 311.03L382.471 313.694H385.295V311.694ZM400.053 311.694V313.694H401.691L402.014 312.088L400.053 311.694ZM410.055 261.845L412.016 262.239L412.496 259.845H410.055V261.845ZM402.84 261.845V259.845H401.424L400.954 261.181L402.84 261.845ZM348.79 354.72L393.064 239.936L389.332 238.497L345.058 353.28L348.79 354.72ZM391.198 241.217H435.799V237.217H391.198V241.217ZM433.831 238.862L413.17 353.646L417.107 354.354L437.768 239.571L433.831 238.862ZM415.138 352H391.526V356H415.138V352ZM393.485 354.401L397.585 334.396L393.666 333.593L389.567 353.599L393.485 354.401ZM395.625 331.995H377.424V335.995H395.625V331.995ZM375.538 333.33L368.487 353.335L372.259 354.665L379.31 334.66L375.538 333.33ZM370.373 352H346.924V356H370.373V352ZM385.295 313.694H400.053V309.694H385.295V313.694ZM402.014 312.088L412.016 262.239L408.094 261.452L398.092 311.301L402.014 312.088ZM410.055 259.845H402.84V263.845H410.055V259.845ZM400.954 261.181L383.408 311.03L387.181 312.358L404.727 262.509L400.954 261.181ZM427.747 354.328L427.597 356.322L427.612 356.323L427.627 356.324L427.747 354.328ZM421.188 353.836L419.266 353.283L418.586 355.646L421.038 355.83L421.188 353.836ZM427.747 331.043V329.043H426.241L425.825 330.49L427.747 331.043ZM450.048 293.001L448.133 292.423L448.13 292.431L450.048 293.001ZM466.281 239.217V237.217H464.796L464.366 238.639L466.281 239.217ZM526.297 239.217L528.22 239.766L528.948 237.217H526.297V239.217ZM493.501 354V356H495.01L495.424 354.549L493.501 354ZM468.905 354L466.982 353.451L466.253 356H468.905V354ZM495.141 262.173L497.064 262.723L497.792 260.173H495.141V262.173ZM483.007 262.173V260.173H481.521L481.092 261.596L483.007 262.173ZM471.528 300.216L473.439 300.808L473.441 300.801L473.443 300.793L471.528 300.216ZM459.886 334.979L461.707 335.806L461.71 335.799L461.714 335.791L459.886 334.979ZM427.896 352.334L421.337 351.842L421.038 355.83L427.597 356.322L427.896 352.334ZM423.11 354.389L429.669 331.596L425.825 330.49L419.266 353.283L423.11 354.389ZM427.747 333.043H432.994V329.043H427.747V333.043ZM432.994 333.043C434.384 333.043 435.982 332.953 437.522 331.839C438.963 330.798 440.092 329.049 441.251 326.501C443.578 321.382 446.575 311.7 451.965 293.571L448.13 292.431C442.698 310.704 439.792 320.044 437.609 324.845C436.513 327.257 435.737 328.194 435.178 328.598C434.72 328.929 434.228 329.043 432.994 329.043V333.043ZM451.962 293.579L468.196 239.794L464.366 238.639L448.133 292.423L451.962 293.579ZM466.281 241.217H526.297V237.217H466.281V241.217ZM524.373 238.667L491.578 353.451L495.424 354.549L528.22 239.766L524.373 238.667ZM493.501 352H468.905V356H493.501V352ZM470.828 354.549L497.064 262.723L493.218 261.624L466.982 353.451L470.828 354.549ZM495.141 260.173H483.007V264.173H495.141V260.173ZM481.092 261.596L469.614 299.638L473.443 300.793L484.922 262.751L481.092 261.596ZM469.618 299.624C465.988 311.338 460.621 328.401 458.058 334.166L461.714 335.791C464.399 329.75 469.854 312.378 473.439 300.808L469.618 299.624ZM458.065 334.151C454.885 341.148 451.171 345.85 446.463 348.727C441.758 351.602 435.811 352.808 427.867 352.332L427.627 356.324C436.081 356.832 442.923 355.578 448.549 352.14C454.171 348.704 458.328 343.239 461.707 335.806L458.065 334.151ZM511.496 354L509.573 353.451L508.845 356H511.496V354ZM544.292 239.217V237.217H542.783L542.369 238.667L544.292 239.217ZM568.888 239.217L570.812 239.764L571.537 237.217H568.888V239.217ZM556.754 281.85L554.83 281.303L554.105 283.85H556.754V281.85ZM586.434 310.054L588.353 310.615L588.357 310.601L588.361 310.588L586.434 310.054ZM581.022 328.584L579.103 328.023L579.1 328.031L579.098 328.039L581.022 328.584ZM582.826 354L580.903 353.451L580.175 356H582.826V354ZM615.621 239.217V237.217H614.113L613.698 238.667L615.621 239.217ZM640.218 239.217L642.141 239.766L642.869 237.217H640.218V239.217ZM607.423 354V356H608.931L609.346 354.549L607.423 354ZM542.488 331.863L540.563 331.32L539.845 333.863H542.488V331.863ZM556.754 327.436L554.83 326.889L554.827 326.901L556.754 327.436ZM562.165 308.415L560.268 307.782L560.254 307.824L560.241 307.867L562.165 308.415ZM550.359 303.987V301.987H548.845L548.434 303.444L550.359 303.987ZM513.419 354.549L546.215 239.766L542.369 238.667L509.573 353.451L513.419 354.549ZM544.292 241.217H568.888V237.217H544.292V241.217ZM566.964 238.669L554.83 281.303L558.677 282.398L570.812 239.764L566.964 238.669ZM556.754 283.85H567.412V279.85H556.754V283.85ZM567.412 283.85C575.849 283.85 580.906 286.834 583.506 291.196C586.175 295.675 586.558 302.101 584.506 309.521L588.361 310.588C590.572 302.593 590.381 294.918 586.942 289.148C583.434 283.262 576.849 279.85 567.412 279.85V283.85ZM584.514 309.494L579.103 328.023L582.942 329.144L588.353 310.615L584.514 309.494ZM579.098 328.039C576.528 337.114 573.153 343.041 568.841 346.719C564.572 350.359 559.141 352 551.999 352V356C559.777 356 566.235 354.198 571.436 349.762C576.594 345.364 580.269 338.583 582.947 329.129L579.098 328.039ZM551.999 352H511.496V356H551.999V352ZM584.749 354.549L617.544 239.766L613.698 238.667L580.903 353.451L584.749 354.549ZM615.621 241.217H640.218V237.217H615.621V241.217ZM638.295 238.667L605.5 353.451L609.346 354.549L642.141 239.766L638.295 238.667ZM607.423 352H582.826V356H607.423V352ZM542.488 333.863H552.326V329.863H542.488V333.863ZM552.326 333.863C554.067 333.863 555.555 333.347 556.691 332.108C557.709 330.997 558.259 329.489 558.681 327.971L554.827 326.901C554.429 328.334 554.077 329.04 553.742 329.405C553.526 329.641 553.21 329.863 552.326 329.863V333.863ZM558.678 327.983L564.089 308.962L560.241 307.867L554.83 326.889L558.678 327.983ZM564.062 309.047C564.608 307.41 564.852 305.519 563.829 303.985C562.772 302.399 560.908 301.987 559.214 301.987V305.987C560.47 305.987 560.574 306.313 560.501 306.203C560.462 306.145 560.706 306.467 560.268 307.782L564.062 309.047ZM559.214 301.987H550.359V305.987H559.214V301.987ZM548.434 303.444L540.563 331.32L544.413 332.407L552.284 304.531L548.434 303.444ZM632.562 326.616L634.484 327.168L634.486 327.163L632.562 326.616ZM650.436 263.813L652.359 264.36L652.36 264.358L650.436 263.813ZM713.239 266.601L711.316 266.048L711.313 266.059L713.239 266.601ZM707.007 288.737V290.737H708.522L708.933 289.279L707.007 288.737ZM682.903 288.737L680.979 288.19L680.254 290.737H682.903V288.737ZM689.626 265.125L691.55 265.672L691.553 265.66L689.626 265.125ZM674.704 265.125L676.628 265.673L676.636 265.642L676.644 265.61L674.704 265.125ZM656.667 328.42L658.585 328.984L658.588 328.976L658.59 328.968L656.667 328.42ZM671.589 328.092L669.666 327.542L669.664 327.549L669.661 327.556L671.589 328.092ZM677.82 306.283V304.283H676.311L675.897 305.733L677.82 306.283ZM701.924 306.283L703.848 306.829L704.57 304.283H701.924V306.283ZM695.365 329.404L693.441 328.858L693.441 328.859L695.365 329.404ZM651.583 352.82C643.144 352.82 638.044 349.834 635.425 345.469C632.741 340.995 632.357 334.576 634.484 327.168L630.64 326.064C628.34 334.069 628.53 341.752 631.995 347.527C635.525 353.411 642.149 356.82 651.583 356.82V352.82ZM634.486 327.163L652.359 264.36L648.512 263.266L630.639 326.068L634.486 327.163ZM652.36 264.358C654.93 255.283 658.305 249.355 662.617 245.678C666.886 242.038 672.316 240.397 679.459 240.397V236.397C671.681 236.397 665.223 238.199 660.022 242.635C654.864 247.033 651.189 253.814 648.511 263.268L652.36 264.358ZM679.459 240.397H694.217V236.397H679.459V240.397ZM694.217 240.397C702.656 240.397 707.757 243.383 710.376 247.747C713.06 252.221 713.444 258.64 711.316 266.048L715.161 267.153C717.46 259.147 717.271 251.464 713.806 245.689C710.275 239.806 703.652 236.397 694.217 236.397V240.397ZM711.313 266.059L705.082 288.195L708.933 289.279L715.164 267.142L711.313 266.059ZM707.007 286.737H682.903V290.737H707.007V286.737ZM684.826 289.285L691.549 265.672L687.702 264.577L680.979 288.19L684.826 289.285ZM691.553 265.66C691.994 264.073 692.207 262.225 691.25 260.728C690.22 259.115 688.378 258.697 686.674 258.697V262.697C687.922 262.697 687.967 263.018 687.879 262.881C687.863 262.855 687.922 262.925 687.926 263.216C687.93 263.515 687.873 263.961 687.699 264.59L691.553 265.66ZM686.674 258.697H679.295V262.697H686.674V258.697ZM679.295 258.697C677.464 258.697 675.945 259.353 674.81 260.552C673.739 261.683 673.133 263.164 672.764 264.64L676.644 265.61C676.931 264.462 677.309 263.73 677.714 263.303C678.054 262.943 678.504 262.697 679.295 262.697V258.697ZM672.781 264.577L654.743 327.872L658.59 328.968L676.628 265.673L672.781 264.577ZM654.748 327.855C654.309 329.348 654.051 331.206 655.131 332.691C656.225 334.195 658.101 334.519 659.782 334.519V330.519C659.125 330.519 658.722 330.447 658.495 330.372C658.29 330.304 658.311 330.262 658.366 330.338C658.419 330.411 658.373 330.414 658.369 330.196C658.364 329.96 658.413 329.572 658.585 328.984L654.748 327.855ZM659.782 334.519H666.997V330.519H659.782V334.519ZM666.997 334.519C668.73 334.519 670.234 334.009 671.403 332.806C672.479 331.7 673.08 330.194 673.516 328.627L669.661 327.556C669.277 328.941 668.895 329.648 668.535 330.018C668.27 330.291 667.888 330.519 666.997 330.519V334.519ZM673.512 328.641L679.743 306.832L675.897 305.733L669.666 327.542L673.512 328.641ZM677.82 308.283H701.924V304.283H677.82V308.283ZM700 305.737L693.441 328.858L697.289 329.949L703.848 306.829L700 305.737ZM693.441 328.859C690.864 337.957 687.604 343.883 683.41 347.555C679.27 351.18 673.974 352.82 666.833 352.82V356.82C674.614 356.82 680.961 355.016 686.045 350.565C691.074 346.161 694.619 339.38 697.289 329.948L693.441 328.859ZM666.833 352.82H651.583V356.82H666.833V352.82ZM770.204 296.772L768.458 295.797L768.196 296.265L768.204 296.801L770.204 296.772ZM770.696 331.043L768.696 331.072L768.724 333.043H770.696V331.043ZM782.994 331.043L784.916 331.596L785.65 329.043H782.994V331.043ZM771.68 370.398V372.398H773.185L773.602 370.95L771.68 370.398ZM754.626 370.398H752.626V372.398H754.626V370.398ZM754.626 354H756.626V352H754.626V354ZM746.919 354H744.919V356H746.919V354ZM746.919 308.087H748.919V306.087H746.919V308.087ZM742.492 308.087V306.087H740.983L740.569 307.537L742.492 308.087ZM729.374 354V356H730.882L731.297 354.549L729.374 354ZM704.777 354L702.854 353.451L702.126 356H704.777V354ZM737.572 239.217V237.217H736.064L735.649 238.667L737.572 239.217ZM762.169 239.217L764.092 239.766L764.82 237.217H762.169V239.217ZM749.051 285.13L747.128 284.58L746.399 287.13H749.051V285.13ZM752.166 285.13V287.13H753.341L753.913 286.103L752.166 285.13ZM777.747 239.217V237.217H776.571L775.999 238.243L777.747 239.217ZM802.343 239.217L804.089 240.192L805.751 237.217H802.343V239.217ZM768.204 296.801L768.696 331.072L772.695 331.015L772.203 296.744L768.204 296.801ZM770.696 333.043H782.994V329.043H770.696V333.043ZM781.072 330.491L769.757 369.845L773.602 370.95L784.916 331.596L781.072 330.491ZM771.68 368.398H754.626V372.398H771.68V368.398ZM756.626 370.398V354H752.626V370.398H756.626ZM754.626 352H746.919V356H754.626V352ZM748.919 354V308.087H744.919V354H748.919ZM746.919 306.087H742.492V310.087H746.919V306.087ZM740.569 307.537L727.451 353.451L731.297 354.549L744.415 308.636L740.569 307.537ZM729.374 352H704.777V356H729.374V352ZM706.7 354.549L739.495 239.766L735.649 238.667L702.854 353.451L706.7 354.549ZM737.572 241.217H762.169V237.217H737.572V241.217ZM760.246 238.667L747.128 284.58L750.974 285.679L764.092 239.766L760.246 238.667ZM749.051 287.13H752.166V283.13H749.051V287.13ZM753.913 286.103L779.494 240.19L775.999 238.243L750.419 284.157L753.913 286.103ZM777.747 241.217H802.343V237.217H777.747V241.217ZM800.597 238.241L768.458 295.797L771.95 297.747L804.089 240.192L800.597 238.241ZM778.643 354L776.777 353.28L775.728 356H778.643V354ZM822.917 239.217V237.217H821.545L821.051 238.497L822.917 239.217ZM867.519 239.217L869.487 239.571L869.911 237.217H867.519V239.217ZM846.858 354V356H848.53L848.826 354.354L846.858 354ZM823.245 354L821.286 353.599L820.794 356H823.245V354ZM827.344 333.995L829.304 334.396L829.796 331.995H827.344V333.995ZM809.143 333.995V331.995H807.727L807.257 333.33L809.143 333.995ZM802.092 354V356H803.508L803.978 354.665L802.092 354ZM817.014 311.694L815.127 311.03L814.19 313.694H817.014V311.694ZM831.772 311.694V313.694H833.41L833.733 312.088L831.772 311.694ZM841.774 261.845L843.735 262.239L844.215 259.845H841.774V261.845ZM834.559 261.845V259.845H833.143L832.673 261.181L834.559 261.845ZM780.509 354.72L824.783 239.936L821.051 238.497L776.777 353.28L780.509 354.72ZM822.917 241.217H867.519V237.217H822.917V241.217ZM865.55 238.862L844.889 353.646L848.826 354.354L869.487 239.571L865.55 238.862ZM846.858 352H823.245V356H846.858V352ZM825.204 354.401L829.304 334.396L825.385 333.593L821.286 353.599L825.204 354.401ZM827.344 331.995H809.143V335.995H827.344V331.995ZM807.257 333.33L800.206 353.335L803.978 354.665L811.029 334.66L807.257 333.33ZM802.092 352H778.643V356H802.092V352ZM817.014 313.694H831.772V309.694H817.014V313.694ZM833.733 312.088L843.735 262.239L839.813 261.452L829.811 311.301L833.733 312.088ZM841.774 259.845H834.559V263.845H841.774V259.845ZM832.673 261.181L815.127 311.03L818.9 312.358L836.446 262.509L832.673 261.181Z" fill="black"/>
</svg>
