<svg width="801" height="462" viewBox="0 0 801 462" fill="none" xmlns="http://www.w3.org/2000/svg">
<path d="M46.8401 453L61.6646 401.114H74.1913C82.2707 401.114 84.865 406.822 82.8637 413.863L81.3812 418.978C80.1211 423.499 78.1939 425.945 75.3773 427.279C77.6751 429.281 78.1939 432.468 77.1562 436.026L75.5997 441.511C73.2277 449.813 69.2251 453 62.48 453H46.8401ZM64.4071 423.129H68.7804C70.7076 423.129 71.5229 422.091 72.0418 420.238L74.4878 412.01C75.0067 410.157 74.4137 409.268 72.4865 409.268H68.4098L64.4071 423.129ZM58.255 444.772H63.2953C65.0742 444.772 65.7413 443.735 66.2602 441.882L68.558 433.728C69.0769 431.875 68.4839 430.986 66.4084 430.986H62.1835L58.255 444.772ZM89.4594 453.148L86.791 453L89.2371 444.402H91.2384C94.4256 444.402 95.0927 442.03 99.8366 426.316L107.397 401.114H132.08L117.255 453H107.99L120.369 409.712H113.623L107.619 429.577C105.841 435.211 104.432 440.77 102.505 445.143C100.207 450.332 97.0199 453.519 89.4594 453.148ZM152.793 453.371C144.714 453.371 142.194 447.589 144.195 440.622L146.863 431.356H140.859L134.707 453H125.442L140.266 401.114H149.532L143.38 422.758H149.309L152.274 412.233C154.646 403.857 158.649 400.744 165.394 400.744H169.693C177.772 400.744 180.293 406.525 178.291 413.493L170.212 441.882C167.84 450.257 163.837 453.371 157.092 453.371H152.793ZM155.017 444.772H157.982C159.761 444.772 160.428 443.735 160.947 441.882L169.471 412.084C169.99 410.231 169.397 409.342 167.469 409.342H164.505C162.726 409.342 162.058 410.379 161.54 412.233L153.016 442.03C152.497 443.883 153.09 444.772 155.017 444.772ZM174.809 453L189.633 401.114H213.13L210.684 409.712H196.453L193.117 421.276H197.12C205.199 421.276 207.719 427.131 205.718 434.025L203.568 441.511C201.196 449.887 197.194 453 190.449 453H174.809ZM186.52 444.402H191.338C193.117 444.402 193.784 443.364 194.303 441.511L196.897 432.616C197.416 430.763 196.823 429.874 194.896 429.874H190.671L186.52 444.402ZM209.734 444.402H212.625C214.107 444.402 214.848 443.586 216.331 440.325L216.627 401.114H225.67L224.707 420.09L223.595 430.911H223.817L227.968 419.793L236.121 401.114H245.98L227.004 438.768C221.816 449.146 219.296 453 212.773 453H207.288L209.734 444.402ZM263.688 453.371C255.608 453.371 253.088 447.589 255.089 440.622L257.758 431.356H251.754L245.602 453H236.336L251.161 401.114H260.426L254.274 422.758H260.204L263.169 412.233C265.541 403.857 269.543 400.744 276.288 400.744H280.587C288.667 400.744 291.187 406.525 289.186 413.493L281.106 441.882C278.734 450.257 274.732 453.371 267.987 453.371H263.688ZM265.911 444.772H268.876C270.655 444.772 271.322 443.735 271.841 441.882L280.365 412.084C280.884 410.231 280.291 409.342 278.364 409.342H275.399C273.62 409.342 272.953 410.379 272.434 412.233L263.91 442.03C263.391 443.883 263.984 444.772 265.911 444.772ZM301.984 453L314.362 409.712H305.838L308.284 401.114H334.598L332.152 409.712H323.628L311.249 453H301.984ZM335.636 453.371C327.556 453.371 325.036 447.589 327.037 440.622L335.117 412.233C337.489 403.857 341.491 400.744 348.237 400.744H353.277C361.356 400.744 363.876 406.525 361.875 413.493L353.796 441.882C351.424 450.257 347.421 453.371 340.676 453.371H335.636ZM337.859 444.772H341.565C343.344 444.772 344.012 443.735 344.53 441.882L353.054 412.084C353.573 410.231 352.98 409.342 351.053 409.342H347.347C345.568 409.342 344.901 410.379 344.382 412.233L335.858 442.03C335.339 443.883 335.932 444.772 337.859 444.772ZM373.573 453L379.281 432.987H373.721C366.013 432.987 363.567 429.577 365.79 421.869L371.72 401.114H380.985L374.981 422.165C374.537 423.573 375.13 424.389 376.538 424.389H381.727L388.398 401.114H397.663L382.838 453H373.573ZM391.024 453L405.848 401.114H415.114L408.961 422.758H410.666L423.267 401.114H432.755L417.856 426.316L418.597 453H409.332L409.258 431.356H406.441L400.289 453H391.024ZM428.844 444.402H431.735C433.218 444.402 433.959 443.586 435.441 440.325L435.738 401.114H444.781L443.817 420.09L442.705 430.911H442.928L447.078 419.793L455.232 401.114H465.09L446.115 438.768C440.926 449.146 438.406 453 431.883 453H426.398L428.844 444.402ZM466.168 453L480.993 401.114H489.295L491 427.428L506.936 401.114H516.572L501.747 453H492.927L497.374 437.434L501.821 423.573H501.451L488.702 444.402H484.551L483.217 423.573H482.846L479.436 437.434L474.989 453H466.168ZM510.613 453L525.438 401.114H534.406L530.256 415.716L525.808 429.577H526.179L543.968 401.114H552.492L537.668 453H528.699L532.85 438.398L537.297 424.537H536.927L519.137 453H510.613ZM546.218 453L561.043 401.114H574.755C582.835 401.114 585.355 406.97 583.353 413.863L581.204 421.35C578.832 429.725 574.829 432.839 568.084 432.839H561.265L555.483 453H546.218ZM563.711 424.24H568.974C570.753 424.24 571.42 423.203 571.939 421.35L574.533 412.455C575.052 410.602 574.459 409.712 572.532 409.712H567.862L563.711 424.24ZM574.758 453L595.364 401.114H611.968L603.221 453H594.401L596.18 443.216H587.581L583.949 453H574.758ZM590.843 434.618H597.736L602.258 409.638H600.182L590.843 434.618Z" fill="black"/>
<path d="M182.301 360.82C164.427 360.82 158.852 348.03 163.279 332.616L181.153 269.813C186.4 251.284 195.255 244.397 210.177 244.397H226.246C244.12 244.397 249.695 257.187 245.268 272.601L227.394 335.404C222.147 353.933 213.292 360.82 198.37 360.82H182.301ZM190.5 338.519H198.534C201.158 338.519 202.306 337.043 203.126 334.092L221.163 271.125C221.983 268.173 221.163 266.698 218.212 266.698H210.013C207.389 266.698 206.077 268.501 205.421 271.125L187.384 334.42C186.564 337.207 187.384 338.519 190.5 338.519Z" fill="black"/>
<path d="M248.311 360L274.548 268.173H254.871L261.43 245.217H325.38L318.821 268.173H299.144L272.908 360H248.311Z" fill="black"/>
<path d="M287.734 376.398L299.048 337.043H307.739C311.838 327.533 316.758 312.611 321.841 296.213L337.583 245.217H397.926L371.69 337.043H382.512L371.198 376.398H354.144V360H315.938L304.787 376.398H287.734ZM330.86 337.043H347.093L366.77 268.009H355.128L346.437 296.213C342.502 309.003 337.091 324.581 330.86 337.043Z" fill="black"/>
<path d="M387.461 360L420.256 245.217H444.853L432.718 287.85H443.377C461.25 287.85 466.661 300.641 462.398 316.054L456.987 334.584C451.74 353.113 442.885 360 427.963 360H387.461ZM458.791 360L491.586 245.217H516.182L483.387 360H458.791ZM418.452 337.863H428.291C430.915 337.863 431.898 336.387 432.718 333.436L438.13 314.415C439.113 311.463 438.13 309.987 435.178 309.987H426.323L418.452 337.863Z" fill="black"/>
<path d="M494.917 360L534.763 299.493L528.696 245.217H552.308L554.604 278.34H555.26L574.117 245.217H600.189L563.131 302.116L569.034 360H544.765L542.798 326.549H542.142L522.465 360H494.917Z" fill="black"/>
<path d="M574.061 360L618.334 245.217H662.936L642.275 360H618.662L622.762 339.995H604.56L597.509 360H574.061ZM612.431 317.694H627.189L637.192 267.845H629.977L612.431 317.694Z" fill="black"/>
<path d="M664.658 360L690.894 268.173H671.217L677.776 245.217H741.727L735.168 268.173H715.49L689.254 360H664.658Z" fill="black"/>
<path d="M721.178 360L753.974 245.217H778.57L766.436 287.85H777.094C794.968 287.85 800.379 300.641 796.116 316.054L790.704 334.584C785.457 353.113 776.602 360 761.681 360H721.178ZM752.17 337.863H762.009C764.632 337.863 765.616 336.387 766.436 333.436L771.847 314.415C772.831 311.463 771.847 309.987 768.896 309.987H760.041L752.17 337.863Z" fill="black"/>
<path fill-rule="evenodd" clip-rule="evenodd" d="M201.201 333.549L219.236 270.59C219.237 270.587 219.238 270.584 219.238 270.582C219.411 269.958 219.467 269.514 219.463 269.216C219.461 269.028 219.435 268.933 219.422 268.895C219.344 268.842 219.048 268.698 218.212 268.698H210.013C209.221 268.698 208.772 268.943 208.431 269.303C208.027 269.73 207.649 270.462 207.362 271.61L207.354 271.642L189.305 334.976L189.303 334.984C189.13 335.572 189.082 335.96 189.086 336.197C189.088 336.255 189.092 336.297 189.096 336.327C189.122 336.339 189.16 336.355 189.213 336.372C189.439 336.447 189.842 336.519 190.5 336.519H198.534C199.425 336.519 199.807 336.291 200.072 336.018C200.432 335.649 200.814 334.941 201.199 333.557L201.201 333.549ZM219.444 268.915C219.444 268.915 219.439 268.912 219.432 268.903C219.441 268.91 219.444 268.915 219.444 268.915ZM203.126 334.092L221.163 271.125C221.983 268.173 221.163 266.698 218.212 266.698H210.013C207.389 266.698 206.077 268.501 205.421 271.125L187.384 334.42C186.564 337.207 187.384 338.519 190.5 338.519H198.534C201.158 338.519 202.306 337.043 203.126 334.092ZM163.279 332.616L181.153 269.813C186.4 251.284 195.255 244.397 210.177 244.397H226.246C244.12 244.397 249.695 257.187 245.268 272.601L227.394 335.404C222.147 353.933 213.292 360.82 198.37 360.82H182.301C164.427 360.82 158.852 348.03 163.279 332.616ZM229.319 335.949C226.641 345.403 222.966 352.184 217.808 356.582C212.607 361.018 206.149 362.82 198.37 362.82H182.301C172.866 362.82 160.53 356.884 157 351C153.535 345.225 159.058 340.07 161.357 332.065L161.357 332.064L179.229 269.268C181.906 259.814 185.581 253.033 190.739 248.635C195.94 244.199 202.398 242.397 210.177 242.397L226.246 238.5C235.681 238.5 242.305 245.806 245.835 251.69C249.299 257.464 249.489 265.146 247.191 273.15L247.19 273.153L229.319 335.949ZM245.66 362L238 356L271.896 270.173H252.219L259.921 243.217L319.931 237.5L328.032 243.217L320.33 270.173H300.653L274.417 362H245.66ZM299.144 268.173H318.821L325.38 245.217H261.43L254.871 268.173H274.548L248.311 360H272.908L299.144 268.173ZM285.078 378.398L277 372.5L297.542 335.043H306.415C310.363 325.61 315.057 311.343 319.931 295.621L336.107 243.217L392.5 237.5L400.577 243.217L374.341 335.043H385.168L372.704 378.398H352.144L344.5 371.5L352.144 362H316.996L305.846 378.398H285.078ZM315.938 360H354.144V376.398H371.198L382.512 337.043H371.69L397.926 245.217H337.583L321.841 296.213C316.758 312.611 311.838 327.533 307.739 337.043H299.048L287.734 376.398H304.787L315.938 360ZM345.584 335.043L364.121 270.009H356.605L348.349 296.801C344.7 308.66 339.765 322.982 334.056 335.043H345.584ZM331.84 335.043C331.515 335.718 331.189 336.385 330.86 337.043H347.093L366.77 268.009H355.128L346.437 296.213C342.71 308.328 337.658 322.943 331.84 335.043ZM384.809 362L378 355.762L418.747 243.217L439.5 237.5L447.501 243.217L435.367 285.85H443.377C452.814 285.85 459.398 289.262 462.907 295.148C466.346 300.918 466.537 308.593 464.326 316.588L464.322 316.601L464.318 316.615L458.911 335.129C458.91 335.131 458.91 335.134 458.909 335.137C456.232 344.587 452.557 351.365 447.401 355.762C442.2 360.198 435.742 362 427.963 362H384.809ZM456.987 334.584L462.398 316.054C466.661 300.641 461.25 287.85 443.377 287.85H432.718L444.853 245.217H420.256L387.461 360H427.963C442.885 360 451.74 353.113 456.987 334.584ZM456.139 362L448 355.762L490.077 243.217L510.5 237.5L518.834 243.217L484.896 362H456.139ZM432.718 333.436L438.13 314.415C439.113 311.463 438.13 309.987 435.178 309.987H426.323L418.452 337.863H428.291C430.915 337.863 431.898 336.387 432.718 333.436ZM421.095 335.863H428.291C429.174 335.863 429.49 335.641 429.707 335.405C430.041 335.04 430.393 334.334 430.791 332.901L430.795 332.889L436.218 313.824L436.232 313.782C436.593 312.7 436.491 312.29 436.466 312.212C436.396 312.16 436.091 311.987 435.178 311.987H427.837L421.095 335.863ZM458.791 360H483.387L516.182 245.217H491.586L458.791 360ZM491.205 362L486 354.5L532.695 298.997L526.46 243.217L546 237.5L554.175 243.217L556.213 272.624L572.954 243.217L596 237.5L603.879 243.217L565.192 302.616L571.227 361.79L570.279 352.5L616.962 243.217L657 237L665.328 243.217L643.947 362H616.211L608.5 356L620.31 341.995H605.976L598.925 362H542.88L534.763 356L541.128 332.217L523.609 362H491.205ZM542.142 326.549H542.798L544.765 360H569.034L563.131 302.116L600.189 245.217H574.117L555.26 278.34H554.604L552.308 245.217H528.696L534.763 299.493L494.917 360H522.465L542.142 326.549ZM604.56 339.995H622.762L618.662 360H642.275L662.936 245.217H618.334L574.061 360H597.509L604.56 339.995ZM625.551 315.694L634.751 269.845H631.393L615.255 315.694H625.551ZM612.431 317.694H627.189L637.192 267.845H629.977L612.431 317.694ZM662.006 362L654 356L688.243 270.173H668.565L676.267 243.217L736 237.5L744.378 243.217L736.676 270.173H716.999L690.763 362H662.006ZM715.49 268.173H735.168L741.727 245.217H677.776L671.217 268.173H690.894L664.658 360H689.254L715.49 268.173ZM718.527 362L710.5 356L752.465 243.217L773 237L781.219 243.217L769.084 285.85H777.094C786.531 285.85 793.116 289.262 796.624 295.148C800.063 300.918 800.254 308.593 798.043 316.588L798.039 316.601L798.035 316.615L792.629 335.129C792.628 335.131 792.627 335.134 792.626 335.137C789.949 344.587 786.274 351.365 781.118 355.762C775.917 360.198 769.459 362 761.681 362H718.527ZM790.704 334.584L796.116 316.054C800.379 300.641 794.968 287.85 777.094 287.85H766.436L778.57 245.217H753.974L721.178 360H761.681C776.602 360 785.457 353.113 790.704 334.584ZM764.509 332.901L764.512 332.889L769.936 313.824L769.95 313.782C770.31 312.7 770.209 312.29 770.183 312.212C770.113 312.16 769.809 311.987 768.896 311.987H761.554L754.813 335.863H762.008C762.892 335.863 763.208 335.641 763.424 335.405C763.759 335.04 764.111 334.334 764.509 332.901ZM752.17 337.863L760.041 309.987H768.896C771.847 309.987 772.831 311.463 771.847 314.415L766.436 333.436C765.616 336.387 764.632 337.863 762.009 337.863H752.17Z" fill="black"/>
<path d="M31.698 222L89.2742 72.7285H147.277L120.408 222H89.7007L95.0318 195.984H71.3616L62.1921 222H31.698ZM81.5974 166.983H100.789L113.797 102.156H104.415L81.5974 166.983Z" fill="black"/>
<path d="M136.804 222.427L128.275 221.787L136.804 192.146H143.628C150.452 192.146 151.732 190.013 165.806 142.673L186.917 72.7285H264.965L222.316 222H190.329L224.448 102.583H208.668L193.741 152.056C189.05 167.196 182.012 189.587 178.601 197.264C170.071 216.029 158.129 223.706 136.804 222.427Z" fill="black"/>
<path d="M349.568 102.583H314.169L305.64 132.437H329.736L321.207 162.291H297.11L280.05 222H248.063L265.123 162.291H251.049L259.579 132.437H273.653L290.712 72.7285H358.098L349.568 102.583Z" fill="black"/>
<path d="M320.953 222L378.529 72.7285H436.532L409.663 222H378.956L384.287 195.984H360.617L351.447 222H320.953ZM370.853 166.983H390.045L403.053 102.156H393.67L370.853 166.983Z" fill="black"/>
<path fill-rule="evenodd" clip-rule="evenodd" d="M28.783 224L24 216.5L87.902 70.7285L141.5 65L149.669 70.7285L122.08 224H87.2493L79.5 218L92.5804 197.984H72.7773L63.6077 224H28.783ZM71.3616 195.984H95.0318L89.7007 222H120.408L147.277 72.7285H89.2742L31.698 222H62.1921L71.3616 195.984ZM99.1509 164.983L111.356 104.156H105.831L84.4216 164.983H99.1509ZM81.5974 166.983H100.789L113.797 102.156H104.415L81.5974 166.983ZM136.67 224.422L125.673 223.597L122.968 219.069L135.299 190.146H143.628C145.256 190.146 146.063 190.001 146.821 189.452C147.68 188.831 148.742 187.491 150.177 184.334C153.038 178.042 156.83 165.845 163.889 142.103L163.891 142.095L185.432 70.7285L259.5 65L267.616 70.7285L223.824 224H187.678L180.421 218L221.797 104.583H210.154L195.654 152.641L195.651 152.648C190.982 167.716 183.901 190.261 180.428 198.076L180.425 198.084L180.421 198.091C176.057 207.692 170.717 214.684 163.543 219.069C156.366 223.455 147.602 225.078 136.685 224.423L136.67 224.422ZM208.668 102.583H224.448L190.329 222H222.316L264.965 72.7285H186.917L165.806 142.673C151.732 190.013 150.452 192.146 143.628 192.146H136.804L128.275 221.787L136.804 222.427C158.129 223.706 170.071 216.029 178.601 197.264C182.012 189.587 189.05 167.196 193.741 152.056L208.668 102.583ZM351.077 104.583H315.678L308.291 130.437L324 124.5L332.388 130.437L322.715 164.291H298.618L281.559 224H245.412L237.5 218L262.472 164.291H248.397L242.539 158.5L258.07 130.437H272.144L289.204 70.7285L352.5 65L360.749 70.7285L351.077 104.583ZM273.653 132.437H259.579L251.049 162.291H265.123L248.063 222H280.05L297.11 162.291H321.207L329.736 132.437H305.64L314.169 102.583H349.568L358.098 72.7285H290.712L273.653 132.437ZM318.038 224L310.5 218L377.157 70.7285L431 65L438.924 70.7285L411.335 224H376.505L368.5 218L381.836 197.984H362.033L352.863 224H318.038ZM384.287 195.984H360.617L351.447 222H320.953L378.529 72.7285H436.532L409.663 222H378.956L384.287 195.984ZM388.406 164.983L400.611 104.156H395.086L373.677 164.983H388.406ZM370.853 166.983H390.045L403.053 102.156H393.67L370.853 166.983Z" fill="black"/>
<path d="M23.698 216L81.2742 66.7284H139.277L112.408 216H81.7007L87.0318 189.984H63.3616L54.1921 216H23.698ZM73.5974 160.983H92.7894L105.797 96.1563H96.4146L73.5974 160.983ZM128.805 216.426L120.275 215.787L128.805 186.146H135.628C142.452 186.146 143.732 184.013 157.806 136.673L178.917 66.7284H256.965L214.316 216H182.329L216.448 96.5828H200.668L185.741 146.056C181.05 161.196 174.012 183.587 170.601 191.264C162.071 210.029 150.129 217.706 128.805 216.426ZM341.568 96.5828H306.169L297.64 126.437H321.736L313.207 156.291H289.11L272.05 216H240.063L257.123 156.291H243.049L251.579 126.437H265.653L282.712 66.7284H350.098L341.568 96.5828ZM312.953 216L370.529 66.7284H428.532L401.663 216H370.956L376.287 189.984H352.617L343.447 216H312.953ZM362.853 160.983H382.045L395.053 96.1563H385.67L362.853 160.983Z" fill="#F8FF13"/>
<path d="M23.698 216L21.832 215.28L20.783 218H23.698V216ZM81.2742 66.7284V64.7284H79.902L79.4082 66.0087L81.2742 66.7284ZM139.277 66.7284L141.245 67.0827L141.669 64.7284H139.277V66.7284ZM112.408 216V218H114.08L114.376 216.354L112.408 216ZM81.7007 216L79.7414 215.599L79.2493 218H81.7007V216ZM87.0318 189.984L88.9911 190.386L89.4832 187.984H87.0318V189.984ZM63.3616 189.984V187.984H61.9459L61.4753 189.319L63.3616 189.984ZM54.1921 216V218H55.6077L56.0783 216.665L54.1921 216ZM73.5974 160.983L71.7108 160.319L70.7731 162.983H73.5974V160.983ZM92.7894 160.983V162.983H94.428L94.7503 161.376L92.7894 160.983ZM105.797 96.1563L107.758 96.5497L108.239 94.1563H105.797V96.1563ZM96.4146 96.1563V94.1563H94.9983L94.528 95.4922L96.4146 96.1563ZM25.564 216.72L83.1402 67.4482L79.4082 66.0087L21.832 215.28L25.564 216.72ZM81.2742 68.7284H139.277V64.7284H81.2742V68.7284ZM137.308 66.3741L110.44 215.646L114.376 216.354L141.245 67.0827L137.308 66.3741ZM112.408 214H81.7007V218H112.408V214ZM83.66 216.401L88.9911 190.386L85.0725 189.583L79.7414 215.599L83.66 216.401ZM87.0318 187.984H63.3616V191.984H87.0318V187.984ZM61.4753 189.319L52.3058 215.335L56.0783 216.665L65.2479 190.649L61.4753 189.319ZM54.1921 214H23.698V218H54.1921V214ZM73.5974 162.983H92.7894V158.983H73.5974V162.983ZM94.7503 161.376L107.758 96.5497L103.836 95.7628L90.8285 160.589L94.7503 161.376ZM105.797 94.1563H96.4146V98.1563H105.797V94.1563ZM94.528 95.4922L71.7108 160.319L75.4839 161.647L98.3011 96.8203L94.528 95.4922ZM128.805 216.426L128.655 218.421L128.67 218.422L128.685 218.423L128.805 216.426ZM120.275 215.787L118.353 215.234L117.673 217.597L120.125 217.781L120.275 215.787ZM128.805 186.146V184.146H127.299L126.883 185.593L128.805 186.146ZM157.806 136.673L155.891 136.095L155.889 136.103L157.806 136.673ZM178.917 66.7284V64.7284H177.432L177.002 66.1505L178.917 66.7284ZM256.965 66.7284L258.888 67.2779L259.616 64.7284H256.965V66.7284ZM214.316 216V218H215.824L216.239 216.549L214.316 216ZM182.329 216L180.406 215.451L179.678 218H182.329V216ZM216.448 96.5828L218.371 97.1322L219.1 94.5828H216.448V96.5828ZM200.668 96.5828V94.5828H199.182L198.753 96.005L200.668 96.5828ZM185.741 146.056L187.651 146.648L187.654 146.64L187.656 146.633L185.741 146.056ZM170.601 191.264L172.421 192.091L172.425 192.084L172.428 192.076L170.601 191.264ZM128.954 214.432L120.424 213.792L120.125 217.781L128.655 218.421L128.954 214.432ZM122.197 216.34L130.727 186.699L126.883 185.593L118.353 215.234L122.197 216.34ZM128.805 188.146H135.628V184.146H128.805V188.146ZM135.628 188.146C137.412 188.146 139.325 188.024 141.165 186.693C142.906 185.435 144.322 183.283 145.819 179.99C148.823 173.38 152.707 160.841 159.723 137.243L155.889 136.103C148.83 159.845 145.038 172.042 142.177 178.334C140.742 181.491 139.68 182.831 138.821 183.452C138.063 184.001 137.256 184.146 135.628 184.146V188.146ZM159.721 137.251L180.832 67.3064L177.002 66.1505L155.891 136.095L159.721 137.251ZM178.917 68.7284H256.965V64.7284H178.917V68.7284ZM255.042 66.179L212.393 215.451L216.239 216.549L258.888 67.2779L255.042 66.179ZM214.316 214H182.329V218H214.316V214ZM184.252 216.549L218.371 97.1322L214.525 96.0333L180.406 215.451L184.252 216.549ZM216.448 94.5828H200.668V98.5828H216.448V94.5828ZM198.753 96.005L183.826 145.478L187.656 146.633L202.583 97.1605L198.753 96.005ZM183.831 145.464C179.117 160.676 172.124 182.912 168.773 190.451L172.428 192.076C175.901 184.261 182.982 161.716 187.651 146.648L183.831 145.464ZM168.78 190.436C164.614 199.601 159.718 205.83 153.458 209.655C147.201 213.479 139.332 215.055 128.924 214.43L128.685 218.423C139.602 219.078 148.366 217.455 155.543 213.068C162.717 208.684 168.057 201.692 172.421 192.091L168.78 190.436ZM341.568 96.5828V98.5828H343.077L343.491 97.1322L341.568 96.5828ZM306.169 96.5828V94.5828H304.661L304.246 96.0333L306.169 96.5828ZM297.64 126.437L295.717 125.888L294.988 128.437H297.64V126.437ZM321.736 126.437L323.659 126.987L324.388 124.437H321.736V126.437ZM313.207 156.291V158.291H314.715L315.13 156.841L313.207 156.291ZM289.11 156.291V154.291H287.601L287.187 155.742L289.11 156.291ZM272.05 216V218H273.559L273.973 216.549L272.05 216ZM240.063 216L238.14 215.451L237.412 218H240.063V216ZM257.123 156.291L259.046 156.841L259.775 154.291H257.123V156.291ZM243.049 156.291L241.126 155.742L240.397 158.291H243.049V156.291ZM251.579 126.437V124.437H250.07L249.656 125.888L251.579 126.437ZM265.653 126.437V128.437H267.161L267.576 126.987L265.653 126.437ZM282.712 66.7284V64.7284H281.204L280.789 66.179L282.712 66.7284ZM350.098 66.7284L352.021 67.2779L352.749 64.7284H350.098V66.7284ZM341.568 94.5828H306.169V98.5828H341.568V94.5828ZM304.246 96.0333L295.717 125.888L299.563 126.987L308.092 97.1322L304.246 96.0333ZM297.64 128.437H321.736V124.437H297.64V128.437ZM319.813 125.888L311.283 155.742L315.13 156.841L323.659 126.987L319.813 125.888ZM313.207 154.291H289.11V158.291H313.207V154.291ZM287.187 155.742L270.127 215.451L273.973 216.549L291.033 156.841L287.187 155.742ZM272.05 214H240.063V218H272.05V214ZM241.987 216.549L259.046 156.841L255.2 155.742L238.14 215.451L241.987 216.549ZM257.123 154.291H243.049V158.291H257.123V154.291ZM244.972 156.841L253.502 126.987L249.656 125.888L241.126 155.742L244.972 156.841ZM251.579 128.437H265.653V124.437H251.579V128.437ZM267.576 126.987L284.636 67.2779L280.789 66.179L263.73 125.888L267.576 126.987ZM282.712 68.7284H350.098V64.7284H282.712V68.7284ZM348.175 66.179L339.645 96.0333L343.491 97.1322L352.021 67.2779L348.175 66.179ZM312.953 216L311.087 215.28L310.038 218H312.953V216ZM370.529 66.7284V64.7284H369.157L368.663 66.0087L370.529 66.7284ZM428.532 66.7284L430.5 67.0827L430.924 64.7284H428.532V66.7284ZM401.663 216V218H403.335L403.632 216.354L401.663 216ZM370.956 216L368.997 215.599L368.505 218H370.956V216ZM376.287 189.984L378.246 190.386L378.738 187.984H376.287V189.984ZM352.617 189.984V187.984H351.201L350.731 189.319L352.617 189.984ZM343.447 216V218H344.863L345.334 216.665L343.447 216ZM362.853 160.983L360.966 160.319L360.028 162.983H362.853V160.983ZM382.045 160.983V162.983H383.683L384.006 161.376L382.045 160.983ZM395.053 96.1563L397.014 96.5497L397.494 94.1563H395.053V96.1563ZM385.67 96.1563V94.1563H384.254L383.783 95.4922L385.67 96.1563ZM314.819 216.72L372.395 67.4482L368.663 66.0087L311.087 215.28L314.819 216.72ZM370.529 68.7284H428.532V64.7284H370.529V68.7284ZM426.564 66.3741L399.695 215.646L403.632 216.354L430.5 67.0827L426.564 66.3741ZM401.663 214H370.956V218H401.663V214ZM372.915 216.401L378.246 190.386L374.328 189.583L368.997 215.599L372.915 216.401ZM376.287 187.984H352.617V191.984H376.287V187.984ZM350.731 189.319L341.561 215.335L345.334 216.665L354.503 190.649L350.731 189.319ZM343.447 214H312.953V218H343.447V214ZM362.853 162.983H382.045V158.983H362.853V162.983ZM384.006 161.376L397.014 96.5497L393.092 95.7628L380.084 160.589L384.006 161.376ZM395.053 94.1563H385.67V98.1563H395.053V94.1563ZM383.783 95.4922L360.966 160.319L364.739 161.647L387.556 96.8203L383.783 95.4922Z" fill="black"/>
<path d="M174.301 354.82C156.427 354.82 150.852 342.03 155.28 326.616L173.153 263.813C178.4 245.284 187.255 238.397 202.177 238.397H218.246C236.12 238.397 241.695 251.187 237.268 266.601L219.394 329.404C214.147 347.933 205.292 354.82 190.37 354.82H174.301ZM182.5 332.519H190.534C193.158 332.519 194.306 331.043 195.126 328.092L213.163 265.125C213.983 262.173 213.163 260.697 210.212 260.697H202.013C199.389 260.697 198.077 262.501 197.421 265.125L179.384 328.42C178.564 331.207 179.384 332.519 182.5 332.519ZM240.312 354L266.548 262.173H246.871L253.43 239.217H317.38L310.821 262.173H291.144L264.908 354H240.312ZM279.734 370.398L291.048 331.043H299.739C303.838 321.533 308.758 306.611 313.841 290.213L329.583 239.217H389.926L363.69 331.043H374.512L363.198 370.398H346.144V354H307.938L296.787 370.398H279.734ZM322.86 331.043H339.093L358.77 262.009H347.128L338.437 290.213C334.502 303.003 329.091 318.581 322.86 331.043ZM379.461 354L412.256 239.217H436.853L424.718 281.85H435.377C453.25 281.85 458.661 294.641 454.398 310.054L448.987 328.584C443.74 347.113 434.885 354 419.963 354H379.461ZM450.791 354L483.586 239.217H508.182L475.387 354H450.791ZM410.452 331.863H420.291C422.915 331.863 423.898 330.387 424.718 327.436L430.13 308.415C431.113 305.463 430.13 303.987 427.178 303.987H418.323L410.452 331.863ZM486.917 354L526.763 293.493L520.696 239.217H544.308L546.604 272.34H547.26L566.117 239.217H592.189L555.131 296.116L561.034 354H536.765L534.798 320.549H534.142L514.465 354H486.917ZM566.061 354L610.334 239.217H654.936L634.275 354H610.662L614.762 333.995H596.56L589.509 354H566.061ZM604.431 311.694H619.189L629.192 261.845H621.977L604.431 311.694ZM656.658 354L682.894 262.173H663.217L669.776 239.217H733.727L727.168 262.173H707.49L681.254 354H656.658ZM713.178 354L745.974 239.217H770.57L758.436 281.85H769.094C786.968 281.85 792.379 294.641 788.116 310.054L782.704 328.584C777.457 347.113 768.602 354 753.681 354H713.178ZM744.17 331.863H754.008C756.632 331.863 757.616 330.387 758.436 327.436L763.847 308.415C764.831 305.463 763.847 303.987 760.895 303.987H752.041L744.17 331.863Z" fill="#F8FF13"/>
<path d="M155.28 326.616L157.202 327.168L157.203 327.163L155.28 326.616ZM173.153 263.813L175.077 264.36L175.077 264.358L173.153 263.813ZM237.268 266.601L235.345 266.048L235.344 266.053L237.268 266.601ZM219.394 329.404L217.471 328.856L217.47 328.859L219.394 329.404ZM195.126 328.092L193.203 327.541L193.201 327.549L193.199 327.556L195.126 328.092ZM213.163 265.125L215.086 265.676L215.088 265.668L215.09 265.66L213.163 265.125ZM197.421 265.125L199.345 265.673L199.354 265.642L199.362 265.61L197.421 265.125ZM179.384 328.42L181.303 328.984L181.305 328.976L181.307 328.968L179.384 328.42ZM174.301 352.82C165.862 352.82 160.761 349.834 158.142 345.469C155.458 340.995 155.074 334.576 157.202 327.168L153.357 326.064C151.058 334.069 151.247 341.752 154.712 347.527C158.243 353.411 164.866 356.82 174.301 356.82V352.82ZM157.203 327.163L175.077 264.36L171.229 263.266L153.356 326.068L157.203 327.163ZM175.077 264.358C177.647 255.283 181.023 249.355 185.335 245.678C189.603 242.038 195.034 240.397 202.177 240.397V236.397C194.398 236.397 187.94 238.199 182.739 242.635C177.581 247.033 173.906 253.814 171.229 263.268L175.077 264.358ZM202.177 240.397H218.246V236.397H202.177V240.397ZM218.246 240.397C226.686 240.397 231.786 243.383 234.405 247.747C237.089 252.221 237.473 258.64 235.345 266.048L239.19 267.153C241.489 259.147 241.3 251.464 237.835 245.689C234.305 239.806 227.681 236.397 218.246 236.397V240.397ZM235.344 266.053L217.471 328.856L221.318 329.951L239.191 267.148L235.344 266.053ZM217.47 328.859C214.9 337.934 211.525 343.861 207.213 347.538C202.944 351.179 197.513 352.82 190.37 352.82V356.82C198.149 356.82 204.607 355.017 209.808 350.582C214.966 346.184 218.641 339.403 221.319 329.948L217.47 328.859ZM190.37 352.82H174.301V356.82H190.37V352.82ZM182.5 334.519H190.534V330.519H182.5V334.519ZM190.534 334.519C192.268 334.519 193.771 334.009 194.941 332.806C196.016 331.7 196.618 330.194 197.053 328.627L193.199 327.556C192.814 328.941 192.432 329.648 192.073 330.018C191.807 330.291 191.425 330.519 190.534 330.519V334.519ZM197.048 328.643L215.086 265.676L211.241 264.574L193.203 327.541L197.048 328.643ZM215.09 265.66C215.531 264.073 215.744 262.225 214.787 260.728C213.757 259.115 211.915 258.697 210.212 258.697V262.697C211.459 262.697 211.504 263.018 211.416 262.881C211.4 262.855 211.459 262.925 211.463 263.216C211.467 263.515 211.411 263.961 211.236 264.59L215.09 265.66ZM210.212 258.697H202.013V262.697H210.212V258.697ZM202.013 258.697C200.181 258.697 198.663 259.353 197.527 260.552C196.456 261.683 195.85 263.164 195.481 264.64L199.362 265.61C199.649 264.462 200.027 263.73 200.431 263.303C200.772 262.943 201.221 262.697 202.013 262.697V258.697ZM195.498 264.577L177.461 327.872L181.307 328.968L199.345 265.673L195.498 264.577ZM177.465 327.855C177.026 329.348 176.768 331.206 177.849 332.691C178.942 334.195 180.818 334.519 182.5 334.519V330.519C181.842 330.519 181.439 330.447 181.213 330.372C181.007 330.304 181.028 330.262 181.084 330.338C181.136 330.411 181.091 330.414 181.086 330.196C181.082 329.96 181.13 329.572 181.303 328.984L177.465 327.855ZM240.312 354L238.388 353.451L237.66 356H240.312V354ZM266.548 262.173L268.471 262.723L269.199 260.173H266.548V262.173ZM246.871 262.173L244.948 261.624L244.219 264.173H246.871V262.173ZM253.43 239.217V237.217H251.921L251.507 238.667L253.43 239.217ZM317.38 239.217L319.303 239.766L320.032 237.217H317.38V239.217ZM310.821 262.173V264.173H312.33L312.744 262.723L310.821 262.173ZM291.144 262.173V260.173H289.636L289.221 261.624L291.144 262.173ZM264.908 354V356H266.417L266.831 354.549L264.908 354ZM242.235 354.549L268.471 262.723L264.625 261.624L238.388 353.451L242.235 354.549ZM266.548 260.173H246.871V264.173H266.548V260.173ZM248.794 262.723L255.353 239.766L251.507 238.667L244.948 261.624L248.794 262.723ZM253.43 241.217H317.38V237.217H253.43V241.217ZM315.457 238.667L308.898 261.624L312.744 262.723L319.303 239.766L315.457 238.667ZM310.821 260.173H291.144V264.173H310.821V260.173ZM289.221 261.624L262.985 353.451L266.831 354.549L293.067 262.723L289.221 261.624ZM264.908 352H240.312V356H264.908V352ZM279.734 370.398L277.812 369.845L277.078 372.398H279.734V370.398ZM291.048 331.043V329.043H289.542L289.126 330.491L291.048 331.043ZM299.739 331.043V333.043H301.055L301.576 331.835L299.739 331.043ZM313.841 290.213L315.751 290.805L315.752 290.803L313.841 290.213ZM329.583 239.217V237.217H328.107L327.672 238.627L329.583 239.217ZM389.926 239.217L391.849 239.766L392.577 237.217H389.926V239.217ZM363.69 331.043L361.767 330.494L361.038 333.043H363.69V331.043ZM374.512 331.043L376.434 331.596L377.168 329.043H374.512V331.043ZM363.198 370.398V372.398H364.704L365.12 370.95L363.198 370.398ZM346.144 370.398H344.144V372.398H346.144V370.398ZM346.144 354H348.144V352H346.144V354ZM307.938 354V352H306.879L306.284 352.875L307.938 354ZM296.787 370.398V372.398H297.846L298.441 371.522L296.787 370.398ZM322.86 331.043L321.071 330.149L319.623 333.043H322.86V331.043ZM339.093 331.043V333.043H340.603L341.017 331.592L339.093 331.043ZM358.77 262.009L360.694 262.557L361.42 260.009H358.77V262.009ZM347.128 262.009V260.009H345.652L345.217 261.42L347.128 262.009ZM338.437 290.213L336.526 289.624L336.526 289.625L338.437 290.213ZM281.656 370.95L292.97 331.596L289.126 330.491L277.812 369.845L281.656 370.95ZM291.048 333.043H299.739V329.043H291.048V333.043ZM301.576 331.835C305.723 322.212 310.671 307.192 315.751 290.805L311.931 289.621C306.844 306.03 301.953 320.853 297.902 330.252L301.576 331.835ZM315.752 290.803L331.494 239.806L327.672 238.627L311.93 289.623L315.752 290.803ZM329.583 241.217H389.926V237.217H329.583V241.217ZM388.003 238.667L361.767 330.494L365.613 331.593L391.849 239.766L388.003 238.667ZM363.69 333.043H374.512V329.043H363.69V333.043ZM372.59 330.491L361.276 369.845L365.12 370.95L376.434 331.596L372.59 330.491ZM363.198 368.398H346.144V372.398H363.198V368.398ZM348.144 370.398V354H344.144V370.398H348.144ZM346.144 352H307.938V356H346.144V352ZM306.284 352.875L295.133 369.273L298.441 371.522L309.592 355.125L306.284 352.875ZM296.787 368.398H279.734V372.398H296.787V368.398ZM322.86 333.043H339.093V329.043H322.86V333.043ZM341.017 331.592L360.694 262.557L356.847 261.461L337.17 330.495L341.017 331.592ZM358.77 260.009H347.128V264.009H358.77V260.009ZM345.217 261.42L336.526 289.624L340.349 290.802L349.039 262.598L345.217 261.42ZM336.526 289.625C332.6 302.383 327.227 317.836 321.071 330.149L324.648 331.938C330.954 319.326 336.404 303.624 340.349 290.801L336.526 289.625ZM379.461 354L377.538 353.451L376.809 356H379.461V354ZM412.256 239.217V237.217H410.748L410.333 238.667L412.256 239.217ZM436.853 239.217L438.776 239.764L439.501 237.217H436.853V239.217ZM424.718 281.85L422.795 281.303L422.07 283.85H424.718V281.85ZM454.398 310.054L456.318 310.615L456.322 310.601L456.326 310.588L454.398 310.054ZM448.987 328.584L447.067 328.023L447.065 328.031L447.062 328.039L448.987 328.584ZM450.791 354L448.868 353.451L448.139 356H450.791V354ZM483.586 239.217V237.217H482.077L481.663 238.667L483.586 239.217ZM508.182 239.217L510.105 239.766L510.834 237.217H508.182V239.217ZM475.387 354V356H476.896L477.31 354.549L475.387 354ZM410.452 331.863L408.528 331.32L407.809 333.863H410.452V331.863ZM424.718 327.436L422.795 326.889L422.791 326.901L424.718 327.436ZM430.13 308.415L428.232 307.782L428.218 307.824L428.206 307.867L430.13 308.415ZM418.323 303.987V301.987H416.81L416.398 303.444L418.323 303.987ZM381.384 354.549L414.179 239.766L410.333 238.667L377.538 353.451L381.384 354.549ZM412.256 241.217H436.853V237.217H412.256V241.217ZM434.929 238.669L422.795 281.303L426.642 282.398L438.776 239.764L434.929 238.669ZM424.718 283.85H435.377V279.85H424.718V283.85ZM435.377 283.85C443.813 283.85 448.871 286.834 451.471 291.196C454.14 295.675 454.523 302.101 452.47 309.521L456.326 310.588C458.537 302.593 458.346 294.918 454.907 289.148C451.398 283.262 444.814 279.85 435.377 279.85V283.85ZM452.478 309.494L447.067 328.023L450.907 329.144L456.318 310.615L452.478 309.494ZM447.062 328.039C444.493 337.114 441.117 343.041 436.805 346.719C432.536 350.359 427.106 352 419.963 352V356C427.742 356 434.2 354.198 439.401 349.762C444.558 345.364 448.234 338.583 450.911 329.129L447.062 328.039ZM419.963 352H379.461V356H419.963V352ZM452.714 354.549L485.509 239.766L481.663 238.667L448.868 353.451L452.714 354.549ZM483.586 241.217H508.182V237.217H483.586V241.217ZM506.259 238.667L473.464 353.451L477.31 354.549L510.105 239.766L506.259 238.667ZM475.387 352H450.791V356H475.387V352ZM410.452 333.863H420.291V329.863H410.452V333.863ZM420.291 333.863C422.031 333.863 423.519 333.347 424.655 332.108C425.674 330.997 426.224 329.489 426.645 327.971L422.791 326.901C422.393 328.334 422.041 329.04 421.707 329.405C421.49 329.641 421.174 329.863 420.291 329.863V333.863ZM426.642 327.983L432.053 308.962L428.206 307.867L422.795 326.889L426.642 327.983ZM432.027 309.047C432.572 307.41 432.817 305.519 431.794 303.985C430.736 302.399 428.873 301.987 427.178 301.987V305.987C428.435 305.987 428.539 306.313 428.465 306.203C428.426 306.145 428.671 306.467 428.232 307.782L432.027 309.047ZM427.178 301.987H418.323V305.987H427.178V301.987ZM416.398 303.444L408.528 331.32L412.377 332.407L420.248 304.531L416.398 303.444ZM486.917 354L485.246 352.9L483.205 356H486.917V354ZM526.763 293.493L528.433 294.593L528.831 293.989L528.75 293.271L526.763 293.493ZM520.696 239.217V237.217H518.46L518.708 239.439L520.696 239.217ZM544.308 239.217L546.304 239.078L546.175 237.217H544.308V239.217ZM546.604 272.34L544.609 272.478L544.738 274.34H546.604V272.34ZM547.26 272.34V274.34H548.423L548.998 273.329L547.26 272.34ZM566.117 239.217V237.217H564.954L564.379 238.227L566.117 239.217ZM592.189 239.217L593.865 240.308L595.879 237.217H592.189V239.217ZM555.131 296.116L553.455 295.025L553.069 295.617L553.141 296.319L555.131 296.116ZM561.034 354V356H563.248L563.024 353.797L561.034 354ZM536.765 354L534.769 354.117L534.88 356H536.765V354ZM534.798 320.549L536.794 320.431L536.684 318.549H534.798V320.549ZM534.142 320.549V318.549H532.998L532.418 319.535L534.142 320.549ZM514.465 354V356H515.609L516.189 355.014L514.465 354ZM488.587 355.1L528.433 294.593L525.093 292.393L485.246 352.9L488.587 355.1ZM528.75 293.271L522.683 238.994L518.708 239.439L524.775 293.715L528.75 293.271ZM520.696 241.217H544.308V237.217H520.696V241.217ZM542.313 239.355L544.609 272.478L548.599 272.201L546.304 239.078L542.313 239.355ZM546.604 274.34H547.26V270.34H546.604V274.34ZM548.998 273.329L567.855 240.206L564.379 238.227L545.522 271.35L548.998 273.329ZM566.117 241.217H592.189V237.217H566.117V241.217ZM590.514 238.125L553.455 295.025L556.807 297.208L593.865 240.308L590.514 238.125ZM553.141 296.319L559.044 354.203L563.024 353.797L557.12 295.913L553.141 296.319ZM561.034 352H536.765V356H561.034V352ZM538.762 353.883L536.794 320.431L532.801 320.666L534.769 354.117L538.762 353.883ZM534.798 318.549H534.142V322.549H534.798V318.549ZM532.418 319.535L512.741 352.986L516.189 355.014L535.866 321.563L532.418 319.535ZM514.465 352H486.917V356H514.465V352ZM566.061 354L564.195 353.28L563.146 356H566.061V354ZM610.334 239.217V237.217H608.962L608.468 238.497L610.334 239.217ZM654.936 239.217L656.904 239.571L657.328 237.217H654.936V239.217ZM634.275 354V356H635.947L636.243 354.354L634.275 354ZM610.662 354L608.703 353.599L608.211 356H610.662V354ZM614.762 333.995L616.721 334.396L617.213 331.995H614.762V333.995ZM596.56 333.995V331.995H595.145L594.674 333.33L596.56 333.995ZM589.509 354V356H590.925L591.396 354.665L589.509 354ZM604.431 311.694L602.545 311.03L601.607 313.694H604.431V311.694ZM619.189 311.694V313.694H620.828L621.15 312.088L619.189 311.694ZM629.192 261.845L631.153 262.239L631.633 259.845H629.192V261.845ZM621.977 261.845V259.845H620.56L620.09 261.181L621.977 261.845ZM567.927 354.72L612.2 239.936L608.468 238.497L564.195 353.28L567.927 354.72ZM610.334 241.217H654.936V237.217H610.334V241.217ZM652.968 238.862L632.307 353.646L636.243 354.354L656.904 239.571L652.968 238.862ZM634.275 352H610.662V356H634.275V352ZM612.622 354.401L616.721 334.396L612.803 333.593L608.703 353.599L612.622 354.401ZM614.762 331.995H596.56V335.995H614.762V331.995ZM594.674 333.33L587.623 353.335L591.396 354.665L598.447 334.66L594.674 333.33ZM589.509 352H566.061V356H589.509V352ZM604.431 313.694H619.189V309.694H604.431V313.694ZM621.15 312.088L631.153 262.239L627.231 261.452L617.228 311.301L621.15 312.088ZM629.192 259.845H621.977V263.845H629.192V259.845ZM620.09 261.181L602.545 311.03L606.318 312.358L623.863 262.509L620.09 261.181ZM656.658 354L654.735 353.451L654.006 356H656.658V354ZM682.894 262.173L684.817 262.723L685.545 260.173H682.894V262.173ZM663.217 262.173L661.294 261.624L660.565 264.173H663.217V262.173ZM669.776 239.217V237.217H668.267L667.853 238.667L669.776 239.217ZM733.727 239.217L735.65 239.766L736.378 237.217H733.727V239.217ZM727.168 262.173V264.173H728.676L729.091 262.723L727.168 262.173ZM707.49 262.173V260.173H705.982L705.567 261.624L707.49 262.173ZM681.254 354V356H682.763L683.177 354.549L681.254 354ZM658.581 354.549L684.817 262.723L680.971 261.624L654.735 353.451L658.581 354.549ZM682.894 260.173H663.217V264.173H682.894V260.173ZM665.14 262.723L671.699 239.766L667.853 238.667L661.294 261.624L665.14 262.723ZM669.776 241.217H733.727V237.217H669.776V241.217ZM731.804 238.667L725.245 261.624L729.091 262.723L735.65 239.766L731.804 238.667ZM727.168 260.173H707.49V264.173H727.168V260.173ZM705.567 261.624L679.331 353.451L683.177 354.549L709.414 262.723L705.567 261.624ZM681.254 352H656.658V356H681.254V352ZM713.178 354L711.255 353.451L710.527 356H713.178V354ZM745.974 239.217V237.217H744.465L744.051 238.667L745.974 239.217ZM770.57 239.217L772.494 239.764L773.219 237.217H770.57V239.217ZM758.436 281.85L756.512 281.303L755.787 283.85H758.436V281.85ZM788.116 310.054L790.035 310.615L790.039 310.601L790.043 310.588L788.116 310.054ZM782.704 328.584L780.785 328.023L780.782 328.031L780.78 328.039L782.704 328.584ZM744.17 331.863L742.245 331.32L741.527 333.863H744.17V331.863ZM758.436 327.436L756.512 326.889L756.509 326.901L758.436 327.436ZM763.847 308.415L761.95 307.782L761.936 307.824L761.923 307.867L763.847 308.415ZM752.041 303.987V301.987H750.527L750.116 303.444L752.041 303.987ZM715.101 354.549L747.897 239.766L744.051 238.667L711.255 353.451L715.101 354.549ZM745.974 241.217H770.57V237.217H745.974V241.217ZM768.646 238.669L756.512 281.303L760.359 282.398L772.494 239.764L768.646 238.669ZM758.436 283.85H769.094V279.85H758.436V283.85ZM769.094 283.85C777.531 283.85 782.589 286.834 785.188 291.196C787.857 295.675 788.24 302.101 786.188 309.521L790.043 310.588C792.254 302.593 792.063 294.918 788.624 289.148C785.116 283.262 778.531 279.85 769.094 279.85V283.85ZM786.196 309.494L780.785 328.023L784.624 329.144L790.035 310.615L786.196 309.494ZM780.78 328.039C778.21 337.114 774.835 343.041 770.523 346.719C766.254 350.359 760.823 352 753.681 352V356C761.459 356 767.917 354.198 773.118 349.762C778.276 345.364 781.951 338.583 784.629 329.129L780.78 328.039ZM753.681 352H713.178V356H753.681V352ZM744.17 333.863H754.008V329.863H744.17V333.863ZM754.008 333.863C755.749 333.863 757.237 333.347 758.373 332.108C759.391 330.997 759.941 329.489 760.363 327.971L756.509 326.901C756.111 328.334 755.759 329.04 755.424 329.405C755.208 329.641 754.892 329.863 754.008 329.863V333.863ZM760.359 327.983L765.771 308.962L761.923 307.867L756.512 326.889L760.359 327.983ZM765.744 309.047C766.29 307.41 766.534 305.519 765.511 303.985C764.454 302.399 762.59 301.987 760.896 301.987V305.987C762.152 305.987 762.256 306.313 762.183 306.203C762.144 306.145 762.388 306.467 761.95 307.782L765.744 309.047ZM760.896 301.987H752.041V305.987H760.896V301.987ZM750.116 303.444L742.245 331.32L746.095 332.407L753.966 304.531L750.116 303.444Z" fill="black"/>
</svg>
