<svg width="700" height="410" viewBox="0 0 700 410" fill="none" xmlns="http://www.w3.org/2000/svg">
<path d="M62.8235 62L75.8989 16.2363H94.5313L92.3738 23.82H81.9136L70.9956 62H62.8235ZM83.4392 62.1308L81.0856 62L83.243 54.4163H85.0082C87.8194 54.4163 88.4078 52.3242 92.5919 38.4644L99.2604 16.2363H121.031L107.955 62H99.7834L110.701 23.82H104.752L99.4565 41.3409C97.8874 46.3096 96.6453 51.2128 94.9455 55.0701C92.9188 59.6464 90.1076 62.4576 83.4392 62.1308ZM113.215 62L131.389 16.2363H146.034L138.319 62H130.54L132.109 53.3703H124.525L121.321 62H113.215ZM127.401 45.7866H133.481L137.469 23.7546H135.639L127.401 45.7866ZM143.85 62L156.925 16.2363H167.974C175.1 16.2363 177.388 21.2703 175.623 27.4811L174.315 31.9921C173.204 35.9801 171.504 38.1375 169.02 39.3143C171.047 41.0794 171.504 43.8906 170.589 47.0287L169.216 51.8666C167.124 59.1888 163.594 62 157.644 62H143.85ZM159.344 35.6532H163.201C164.901 35.6532 165.62 34.7379 166.078 33.1035L168.235 25.8467C168.693 24.2122 168.17 23.4277 166.47 23.4277H162.874L159.344 35.6532ZM153.918 54.7432H158.363C159.933 54.7432 160.521 53.8279 160.979 52.1935L163.005 45.002C163.463 43.3676 162.94 42.5831 161.109 42.5831H157.383L153.918 54.7432ZM172.572 62L185.648 16.2363H193.82L188.393 35.3263H195.585L201.011 16.2363H209.183L196.108 62H187.936L193.362 42.91H186.171L180.744 62H172.572ZM203.281 62L216.357 16.2363H224.529L219.429 34.0188H222.96C230.086 34.0188 232.309 39.1835 230.543 45.2636L228.648 51.8666C226.556 59.2542 223.025 62 217.076 62H203.281ZM230.543 62L243.619 16.2363H251.791L238.716 62H230.543ZM213.611 54.4163H217.86C219.429 54.4163 220.018 53.501 220.475 51.8666L222.764 44.0214C223.221 42.387 222.698 41.6025 220.998 41.6025H217.272L213.611 54.4163ZM270.969 13.2943C266.785 13.2943 265.543 10.287 266.589 6.69128L266.719 6.10289H272.146L271.819 7.41042C271.492 8.52183 271.819 8.84871 272.799 8.84871H274.434C275.349 8.84871 275.676 8.32569 275.937 7.34504L276.264 6.10289H281.691L281.364 7.34504C280.252 11.6599 278.095 13.2943 274.564 13.2943H270.969ZM246.256 62L259.332 16.2363H267.242L263.581 29.1155L259.659 41.3409H259.985L275.676 16.2363H283.194L270.119 62H262.208L265.869 49.1208L269.792 36.8953H269.465L253.775 62H246.256ZM286.79 62L299.865 16.2363H323.401L310.326 62H302.153L313.071 23.82H305.88L294.962 62H286.79ZM317.499 62L330.574 16.2363H342.669C349.795 16.2363 352.018 21.401 350.253 27.4811L348.357 34.0841C346.265 41.4717 342.735 44.2175 336.785 44.2175H330.771L325.671 62H317.499ZM332.928 36.6338H337.57C339.139 36.6338 339.727 35.7186 340.185 34.0841L342.473 26.2389C342.931 24.6045 342.408 23.82 340.708 23.82H336.589L332.928 36.6338ZM346.939 62L360.014 16.2363H367.925L364.264 29.1155L360.341 41.3409H360.668L376.359 16.2363H383.877L370.802 62H362.891L366.552 49.1208L370.475 36.8953H370.148L354.457 62H346.939ZM387.757 62.3269C380.631 62.3269 378.408 57.2275 380.173 51.0821L381.677 45.6558H389.718L387.823 52.3242C387.365 53.9587 387.888 54.7432 389.588 54.7432H392.203C393.772 54.7432 394.36 53.8279 394.818 52.1935L396.779 45.3289C397.237 43.6945 396.714 42.91 395.014 42.91H390.895L393.118 35.3263H397.694C399.263 35.3263 399.852 34.411 400.31 32.7766L402.271 25.912C402.728 24.2776 402.205 23.4931 400.506 23.4931H397.956C396.387 23.4931 395.799 24.4084 395.341 26.0428L393.51 32.5805H385.796L387.561 26.0428C389.588 18.6552 393.183 15.9094 399.133 15.9094H402.336C409.462 15.9094 411.685 21.0088 409.92 27.1542L408.612 31.8613C407.436 35.9147 405.736 38.1375 403.055 39.1835C404.951 41.0141 405.409 43.8253 404.494 46.898L402.99 52.1935C400.898 59.5811 397.368 62.3269 391.418 62.3269H387.757Z" fill="white"/>
<path d="M32.9661 170.264L56.0979 89.303H101.899L78.7671 170.264H61.4182L79.9237 105.495H68.8204L50.3149 170.264H32.9661ZM98.5285 153.841H105.352C106.162 153.841 106.856 153.725 107.434 153.263L108.36 89.303H125.246L122.701 119.027L120.504 135.335H121.313L127.675 118.333L139.703 89.303H157.515L128.947 148.058C121.082 164.25 116.918 170.264 106.74 170.264H93.7865L98.5285 153.841ZM150.55 170.264L169.055 105.495H155.176L159.803 89.303H204.91L200.283 105.495H186.404L167.899 170.264H150.55ZM190.416 170.264L213.548 89.303H248.361L243.735 105.495H226.039L221.413 121.688H237.836L233.21 137.88H216.786L212.16 154.072H229.856L225.229 170.264H190.416ZM237.416 170.264L260.548 89.303H284.836C297.443 89.303 301.376 98.3244 298.253 109.196L296.865 113.938C294.783 121.456 291.66 126.545 287.496 129.552C290.272 132.907 290.735 137.996 289 143.894L286.571 152.337C282.87 165.407 276.625 170.264 266.1 170.264H237.416ZM268.181 122.035H275.815C277.665 122.035 278.475 120.994 279.053 118.912L282.061 108.271C282.639 106.189 282.061 105.148 279.979 105.148H273.039L268.181 122.035ZM258.813 154.882H266.447C268.297 154.882 269.107 153.841 269.685 151.759L272.808 140.656C273.386 138.574 272.808 137.533 270.726 137.533H263.786L258.813 154.882ZM292.521 170.264L315.653 89.303H333.002L323.749 121.688H325.947L343.99 89.303H361.338L338.669 129.899L339.248 170.264H322.246V137.88H319.123L309.87 170.264H292.521ZM344.622 170.264L375.85 89.303H407.309L392.736 170.264H376.081L378.973 156.154H366.135L361.161 170.264H344.622ZM371.686 140.424H382.096L389.151 105.264H384.062L371.686 140.424Z" fill="#F8FF13"/>
<path d="M224.656 397.935L247.788 316.974H265.137L255.884 349.359H266.987L276.24 316.974H293.589L270.457 397.935H253.108L262.361 365.551H251.258L242.005 397.935H224.656ZM279.694 397.935L310.922 316.974H342.381L327.808 397.935H311.153L314.044 383.825H301.206L296.233 397.935H279.694ZM306.758 368.095H317.167L324.222 332.935H319.133L306.758 368.095ZM344.294 409.501L352.274 381.743H358.404C361.296 375.035 364.765 364.51 368.351 352.944L379.454 316.974H422.017L403.511 381.743H411.145L403.164 409.501H391.136V397.935H364.187L356.322 409.501H344.294ZM374.712 381.743H386.162L400.042 333.051H391.83L385.7 352.944C382.924 361.966 379.107 372.953 374.712 381.743ZM415.214 397.935L438.345 316.974H462.634C475.241 316.974 479.173 325.996 476.05 336.867L474.662 341.61C472.581 349.127 469.458 354.216 465.294 357.223C468.07 360.578 468.532 365.667 466.798 371.565L464.369 380.008C460.668 393.078 454.422 397.935 443.897 397.935H415.214ZM445.979 349.706H453.612C455.463 349.706 456.273 348.665 456.851 346.583L459.858 335.942C460.436 333.86 459.858 332.819 457.776 332.819H450.837L445.979 349.706ZM436.611 382.553H444.244C446.095 382.553 446.904 381.512 447.483 379.43L450.605 368.327C451.184 366.245 450.605 365.204 448.523 365.204H441.584L436.611 382.553ZM488.709 398.514C476.102 398.514 472.169 389.492 475.292 378.62L487.899 334.323C491.6 321.253 497.846 316.396 508.371 316.396H519.705C532.312 316.396 536.245 325.417 533.122 336.289L520.515 380.587C516.814 393.656 510.568 398.514 500.043 398.514H488.709ZM494.492 382.784H500.159C502.009 382.784 502.819 381.743 503.397 379.661L516.12 335.248C516.698 333.166 516.12 332.125 514.038 332.125H508.255C506.405 332.125 505.479 333.398 505.017 335.248L492.294 379.893C491.716 381.859 492.294 382.784 494.492 382.784ZM528.275 397.935L551.407 316.974H567.946L561.469 339.643L554.877 359.768H555.455L581.478 316.974H597.67L574.539 397.935H557.999L564.476 375.266L571.069 355.142H570.49L544.467 397.935H528.275ZM583.159 397.935L611.264 355.257L606.985 316.974H623.639L625.259 340.337H625.721L639.022 316.974H657.412L631.273 357.108L635.437 397.935H618.319L616.931 374.341H616.469L602.59 397.935H583.159Z" fill="#F8FF13"/>
<path d="M0.752191 290.69L28.994 191.844H50.1754L38.8786 231.382H41.5616L63.5902 191.844H84.7716L57.0946 241.408L57.8007 290.69H37.0429V251.152H33.2303L21.9336 290.69H0.752191ZM77.2125 270.639H85.5438C86.5323 270.639 87.3795 270.497 88.0856 269.933L89.2153 191.844H109.832L106.725 228.135L104.042 248.045H105.031L112.797 227.287L127.483 191.844H149.229L114.35 263.578C104.748 283.347 99.6647 290.69 87.2383 290.69H71.4229L77.2125 270.639ZM116.894 304.811L126.638 270.921H134.122C137.652 262.731 141.888 249.881 146.266 235.76L159.822 191.844H211.787L189.194 270.921H198.513L188.77 304.811H174.084V290.69H141.182L131.58 304.811H116.894ZM154.032 270.921H168.012L184.957 211.472H174.931L167.447 235.76C164.058 246.774 159.398 260.189 154.032 270.921ZM198.539 290.69L236.665 191.844H275.074L257.282 290.69H236.948L240.478 273.463H224.804L218.732 290.69H198.539ZM231.582 254.258H244.29L252.904 211.331H246.691L231.582 254.258ZM296.473 270.639H304.804C305.792 270.639 306.64 270.497 307.346 269.933L308.475 191.844H329.092L325.985 228.135L323.302 248.045H324.291L332.057 227.287L346.743 191.844H368.489L333.611 263.578C324.008 283.347 318.925 290.69 306.499 290.69H290.683L296.473 270.639ZM347.983 290.69L376.225 191.844H420.847L415.199 211.613H391.758L369.164 290.69H347.983ZM424.216 291.396C408.824 291.396 404.023 280.382 407.836 267.108L423.228 213.025C427.746 197.069 435.372 191.138 448.222 191.138H462.06C477.452 191.138 482.253 202.152 478.44 215.426L463.049 269.509C458.53 285.466 450.905 291.396 438.055 291.396H424.216ZM431.277 272.192H438.196C440.455 272.192 441.444 270.921 442.15 268.379L457.683 214.155C458.389 211.613 457.683 210.342 455.141 210.342H448.08C445.821 210.342 444.691 211.896 444.127 214.155L428.594 268.662C427.888 271.062 428.594 272.192 431.277 272.192ZM461.367 304.811L471.111 270.921H478.595C482.125 262.731 486.361 249.881 490.739 235.76L504.295 191.844H556.26L533.666 270.921H542.986L533.243 304.811H518.557V290.69H485.655L476.053 304.811H461.367ZM498.505 270.921H512.485L529.43 211.472H519.404L511.92 235.76C508.531 246.774 503.871 260.189 498.505 270.921ZM547.248 290.69L575.49 191.844H596.671L585.374 231.382H598.93L610.227 191.844H631.408L603.167 290.69H581.985L593.282 251.152H579.726L568.429 290.69H547.248ZM641.132 291.396C625.74 291.396 620.939 280.382 624.752 267.108L640.144 213.025C644.662 197.069 652.288 191.138 665.138 191.138H678.976C694.368 191.138 699.169 202.152 695.356 215.426L679.965 269.509C675.446 285.466 667.821 291.396 654.971 291.396H641.132ZM648.193 272.192H655.112C657.371 272.192 658.36 270.921 659.066 268.379L674.599 214.155C675.305 211.613 674.599 210.342 672.057 210.342H664.996C662.737 210.342 661.607 211.896 661.043 214.155L645.51 268.662C644.803 271.062 645.51 272.192 648.193 272.192Z" fill="#F8FF13"/>
</svg>
