<svg width="702" height="412" viewBox="0 0 702 412" fill="none" xmlns="http://www.w3.org/2000/svg">
<path d="M72.8235 62L85.8989 16.2363H106.623L104.466 23.82H91.9136L88.9716 34.0188H92.5019C99.628 34.0188 101.851 39.1835 100.086 45.2636L98.1897 51.8666C96.0977 59.2542 92.5673 62 86.618 62H72.8235ZM83.1531 54.4163H87.4026C88.9716 54.4163 89.56 53.501 90.0176 51.8666L92.3058 44.0214C92.7635 42.387 92.2404 41.6025 90.5406 41.6025H86.8142L83.1531 54.4163ZM98.89 62L117.065 16.2363H131.709L123.995 62H116.215L117.784 53.3703H110.2L106.997 62H98.89ZM113.077 45.7866H119.157L123.145 23.7546H121.314L113.077 45.7866ZM138.635 62.3269C131.509 62.3269 129.287 57.2275 131.052 51.0821L138.178 26.0428C140.27 18.6552 143.8 15.9094 149.749 15.9094H153.345C160.471 15.9094 162.694 21.0088 160.929 27.1542L158.641 35.1955H150.665L153.345 25.912C153.803 24.2776 153.28 23.4931 151.58 23.4931H148.965C147.396 23.4931 146.808 24.4084 146.35 26.0428L138.832 52.3242C138.374 53.9587 138.897 54.7432 140.597 54.7432H143.212C144.781 54.7432 145.369 53.8279 145.827 52.1935L148.246 43.6945H156.287L153.868 52.1935C151.776 59.5811 148.246 62.3269 142.297 62.3269H138.635ZM166.739 62L179.814 16.2363H187.986L182.56 35.3263H189.294L194.72 16.2363H202.892L197.466 35.3263H204.2L209.626 16.2363H217.798L204.723 62H196.551L201.977 42.91H195.243L189.817 62H181.645L187.071 42.91H180.337L174.911 62H166.739ZM218.086 62L222.466 46.5057L222.074 16.2363H230.181L229.723 26.4351L228.873 37.2222H229.2L239.595 16.2363H248.356L230.769 46.1788L226.258 62H218.086ZM239.26 62.1308L236.906 62L239.064 54.4163H240.829C243.64 54.4163 244.229 52.3242 248.413 38.4644L255.081 16.2363H276.852L263.776 62H255.604L266.522 23.82H260.573L255.277 41.3409C253.708 46.3096 252.466 51.2128 250.766 55.0701C248.74 59.6464 245.928 62.4576 239.26 62.1308ZM266.159 68.5377L270.212 54.4163H273.481C275.181 50.886 277.469 44.0868 279.757 36.5684L286.033 16.2363H307.804L296.886 54.4163H300.874L296.821 68.5377H291.525V62H275.965L271.52 68.5377H266.159ZM280.803 54.4163H288.714L297.474 23.82H291.721L287.799 36.5684C286.033 42.2562 283.615 49.2515 280.803 54.4163ZM303.302 62L316.377 16.2363H334.029L331.872 23.82H322.261L318.993 35.3263H327.949L325.726 42.91H316.77L313.501 54.4163H323.111L320.954 62H303.302Z" fill="white"/>
<path d="M102.347 397.43L130.28 299.662H151.23L140.057 338.769H152.348L163.521 299.662H184.471L173.298 338.769H185.589L196.762 299.662H217.712L189.779 397.43H168.829L180.002 358.323H167.711L156.538 397.43H135.588L146.761 358.323H134.47L123.297 397.43H102.347ZM227.395 398.128C212.171 398.128 207.423 387.234 211.194 374.105L226.417 320.613C230.887 304.83 238.429 298.964 251.139 298.964H264.826C280.05 298.964 284.798 309.858 281.027 322.987L265.804 376.48C261.334 392.262 253.792 398.128 241.082 398.128H227.395ZM234.378 379.133H241.222C243.457 379.133 244.434 377.876 245.133 375.362L260.496 321.73C261.195 319.216 260.496 317.959 257.982 317.959H250.999C248.764 317.959 247.647 319.495 247.088 321.73L231.725 375.642C231.026 378.016 231.725 379.133 234.378 379.133ZM274.476 397.709L268.889 397.29L274.476 377.876H278.945C283.415 377.876 284.253 376.48 293.471 345.473L307.298 299.662H358.416L330.483 397.43H309.533L331.879 319.216H321.544L311.767 351.619C308.695 361.535 304.086 376.2 301.851 381.228C296.264 393.519 288.443 398.547 274.476 397.709ZM335.475 411.396L345.112 377.876H352.514C356.006 369.776 360.196 357.066 364.526 343.099L377.934 299.662H429.331L406.985 377.876H416.203L406.566 411.396H392.04V397.43H359.498L350 411.396H335.475ZM372.207 377.876H386.034L402.795 319.076H392.878L385.476 343.099C382.124 353.993 377.515 367.262 372.207 377.876ZM416.228 397.43L453.938 299.662H491.927L474.329 397.43H454.217L457.709 380.39H442.206L436.2 397.43H416.228ZM448.91 361.395H461.48L470 318.937H463.854L448.91 361.395ZM485.767 397.43L513.7 299.662H533.673L536.606 344.915L564.12 299.662H586.607L558.673 397.43H538.421L545.964 371.172L553.506 347.848H552.807L532.695 381.228H520.963L519.846 347.848H519.147L513.561 371.172L506.019 397.43H485.767ZM570.489 397.43L608.2 299.662H646.189L628.591 397.43H608.479L611.971 380.39H596.468L590.462 397.43H570.489ZM603.172 361.395H615.742L624.261 318.937H618.116L603.172 361.395Z" fill="#F8FF13"/>
<path d="M0.526772 274.41L22.0331 199.138H54.4001L50.0989 214.192H33.6465L29.3453 229.247H44.6147L40.3135 244.301H25.044L20.7427 259.356H37.1951L32.8938 274.41H0.526772ZM43.6864 274.41L65.1928 199.138H81.3225L72.72 229.247H74.7631L91.538 199.138H107.668L86.5916 236.882L87.1292 274.41H71.3221V244.301H68.4187L59.8162 274.41H43.6864ZM95.352 274.41L116.858 199.138H132.988L111.482 274.41H95.352ZM135.076 274.41L164.109 199.138H193.358L179.809 274.41H164.324L167.013 261.291H155.077L150.453 274.41H135.076ZM160.238 246.667H169.916L176.475 213.977H171.744L160.238 246.667ZM180.12 285.163L187.539 259.356H193.239C195.927 253.119 199.153 243.334 202.486 232.58L212.809 199.138H252.381L235.176 259.356H242.273L234.853 285.163H223.67V274.41H198.615L191.303 285.163H180.12ZM208.401 259.356H219.046L231.95 214.085H224.315L218.616 232.58C216.035 240.968 212.487 251.183 208.401 259.356ZM242.292 274.41L271.326 199.138H300.574L287.025 274.41H271.541L274.229 261.291H262.293L257.669 274.41H242.292ZM267.455 246.667H277.133L283.692 213.977H278.961L267.455 246.667ZM295.831 274.41L317.338 199.138H332.715L334.973 233.978L356.157 199.138H373.469L351.963 274.41H336.371L342.177 254.194L347.984 236.236H347.446L331.962 261.936H322.929L322.069 236.236H321.531L317.23 254.194L311.423 274.41H295.831ZM356.329 285.163L363.748 259.356H369.448C372.136 253.119 375.362 243.334 378.695 232.58L389.018 199.138H428.59L411.385 259.356H418.482L411.062 285.163H399.879V274.41H374.824L367.512 285.163H356.329ZM384.61 259.356H395.255L408.159 214.085H400.524L394.825 232.58C392.244 240.968 388.696 251.183 384.61 259.356ZM421.727 274.41L443.234 199.138H459.363L451.406 227.096H458.396C470.117 227.096 473.665 235.484 470.869 245.592L467.321 257.743C463.88 269.894 458.073 274.41 448.288 274.41H421.727ZM468.504 274.41L490.01 199.138H506.14L484.633 274.41H468.504ZM442.051 259.893H448.503C450.223 259.893 450.868 258.926 451.406 256.99L454.955 244.516C455.6 242.581 454.955 241.613 453.019 241.613H447.212L442.051 259.893ZM539.401 236.882L539.723 259.356H547.788L540.368 285.163H529.185V274.41H524.131V244.301H521.228L512.625 274.41H496.495L518.002 199.138H534.131L525.529 229.247H527.572L544.347 199.138H560.477L539.401 236.882Z" fill="#F8FF13"/>
<path d="M29.0851 178.416L51.138 101.23H67.6777L58.8566 132.104H60.9516L78.1529 101.23H94.6925L73.0807 139.933L73.632 178.416H57.4231V147.541H54.446L45.6248 178.416H29.0851ZM82.0638 178.416L104.117 101.23H137.306L132.896 116.667H116.025L111.615 132.104H127.272L122.862 147.541H107.204L102.794 162.978H119.664L115.253 178.416H82.0638ZM140.583 178.967C128.564 178.967 124.815 170.366 127.793 160.001L130.439 150.739H145.876L142.899 160.994C142.347 162.978 142.899 163.971 144.884 163.971H149.845C151.61 163.971 152.492 162.758 152.933 160.994L156.02 150.188C156.572 148.313 155.91 147.431 153.815 147.431H145.214L149.625 132.104H158.997C160.762 132.104 161.534 130.892 162.085 129.127L165.062 118.432C165.613 116.557 165.062 115.675 162.967 115.675H158.115C156.351 115.675 155.579 116.667 155.028 118.652L152.161 128.796H136.724L139.811 117.77C143.34 105.31 148.963 100.679 158.997 100.679H167.819C179.837 100.679 183.586 109.28 180.609 119.645L178.514 127.032C176.419 134.53 174.214 138.169 170.024 140.154C173.111 143.351 173.222 147.983 171.678 153.275L169.252 161.876C165.724 174.336 159.769 178.967 149.735 178.967H140.583ZM190.39 178.416L212.443 101.23H228.983L220.162 132.104H222.257L239.458 101.23H255.997L234.386 139.933L234.937 178.416H218.728V147.541H215.751L206.93 178.416H190.39ZM243.369 178.416L265.422 101.23H298.611L294.201 116.667H277.33L272.92 132.104H288.577L284.167 147.541H268.509L264.098 162.978H280.969L276.558 178.416H243.369ZM287.625 178.636L283.215 178.305L287.625 162.978H291.154C294.682 162.978 295.344 161.876 302.621 137.397L313.537 101.23H353.894L331.841 178.416H315.302L332.944 116.667H324.784L317.066 142.249C314.64 150.078 311.001 161.655 309.237 165.625C304.827 175.328 298.652 179.298 287.625 178.636ZM343.942 178.416L365.995 101.23H400.839L396.428 116.667H378.124L360.482 178.416H343.942ZM387.014 178.416L409.067 101.23H442.257L437.846 116.667H420.976L416.565 132.104H432.223L427.812 147.541H412.154L407.744 162.978H424.614L420.204 178.416H387.014ZM431.271 178.416L453.324 101.23H469.863L461.042 132.104H471.628L480.449 101.23H496.988L474.935 178.416H458.396L467.217 147.541H456.632L447.81 178.416H431.271ZM502.447 178.416L524.5 101.23H557.69L553.279 116.667H536.409L531.998 132.104H547.656L543.245 147.541H527.588L523.177 162.978H540.048L535.637 178.416H502.447ZM546.704 178.636L542.293 178.305L546.704 162.978H550.232C553.761 162.978 554.422 161.876 561.7 137.397L572.616 101.23H612.973L590.92 178.416H574.38L592.023 116.667H583.863L576.145 142.249C573.719 150.078 570.08 161.655 568.316 165.625C563.905 175.328 557.73 179.298 546.704 178.636ZM603.021 178.416L625.074 101.23H659.917L655.507 116.667H637.203L619.56 178.416H603.021ZM646.093 178.416L668.146 101.23H701.335L696.925 116.667H680.054L675.644 132.104H691.301L686.891 147.541H671.233L666.822 162.978H683.693L679.282 178.416H646.093Z" fill="#F8FF13"/>
</svg>
