<svg width="205" height="72" viewBox="0 0 205 72" fill="none" xmlns="http://www.w3.org/2000/svg">
<path d="M12.8721 71.5116L20.9767 42.4302H0L12.1569 0H149.698L141.593 28.6047H205L193.082 71.5116H12.8721Z" fill="black"/>
<path d="M59.3548 15.4942L57.6862 20.9768H49.3432L51.0118 15.4942H59.3548ZM45.7676 34.0872L47.6745 27.1744H56.7327C61.5001 27.1744 64.3606 25.029 65.7908 20.5L66.5059 17.8779C68.1745 12.157 65.5525 8.34302 59.3548 8.34302H20.2618L12.8723 33.8488H45.7676V34.0872Z" fill="#F8FF13"/>
<path d="M80.3316 15.4942H83.4305V23.5988H75.8022L80.3316 15.4942ZM69.843 34.0872L72.2267 29.7965H83.4305V34.0872H90.8194V8.58142H76.5171L61.4999 34.0872H69.843Z" fill="#F8FF13"/>
<path d="M105.837 15.4942H113.942L112.511 20.9768H104.168L105.837 15.4942ZM120.616 20.5L121.331 18.1163C123 12.157 120.378 8.58142 114.18 8.58142H100.355L92.9649 34.0872H100.593L102.5 27.1745H107.267L109.413 34.0872H117.279L114.895 26.6977C117.756 25.7442 119.663 23.8372 120.616 20.5Z" fill="#F8FF13"/>
<path d="M127.768 34.0872L135.157 8.58142H127.529L120.14 34.0872H127.768Z" fill="#F8FF13"/>
<path d="M80.0932 37.6628L71.2731 47.9128L67.9359 37.6628H34.8022L27.6511 63.1687H60.5464L64.5987 49.1047L67.2208 56.971H71.9882L79.1398 48.628L75.0867 63.1687H82.715L89.8661 37.6628H80.0932Z" fill="#F8FF13"/>
<path d="M99.401 52.6803L103.93 44.5757H107.029V52.6803H99.401ZM100.117 37.6628L85.0988 63.1687H93.6804L96.0644 58.878H107.268V63.1687H114.657V37.6628H100.117Z" fill="#F8FF13"/>
<path d="M140.401 45.0524L142.308 37.6628H119.186L117.041 45.0524H125.384L120.378 63.1687H128.006L133.011 45.0524H140.401Z" fill="#F8FF13"/>
<path d="M150.413 45.0524H162.093L164.239 37.6628H151.843C147.076 37.6628 144.215 39.8082 142.785 44.3373L140.163 53.6338C138.494 59.5931 141.116 63.1687 147.314 63.1687H156.849L158.994 55.7792H147.314L150.413 45.0524Z" fill="#F8FF13"/>
<path d="M183.785 37.6628L181.163 46.9594H172.582L175.203 37.6628H167.576L160.186 63.1687H167.814L170.436 54.1106H179.256L176.634 63.1687H184.261L191.413 37.6628H183.785Z" fill="#F8FF13"/>
</svg>
